<?xml version="1.0" encoding="UTF-8"?>
<svg version="1.1" xmlns="http://www.w3.org/2000/svg" width="500" height="500">
<path d="M0 0 C0.81985382 -0.00350464 1.63970764 -0.00700928 2.48440552 -0.01062012 C5.19891796 -0.01943331 7.91317037 -0.01358812 10.62768555 -0.00683594 C12.51474559 -0.0081831 14.40180529 -0.01012405 16.28886414 -0.01263428 C20.2474599 -0.0155853 24.20596549 -0.01129001 28.16455078 -0.00195312 C33.23200098 0.00941798 38.29923877 0.00289667 43.3666811 -0.00909805 C47.26579884 -0.01633721 51.16486655 -0.01401887 55.06398582 -0.00884247 C56.93184624 -0.00751044 58.79971123 -0.00913801 60.6675663 -0.01380157 C63.28370752 -0.01889795 65.89950898 -0.01111189 68.515625 0 C69.28415298 -0.00404846 70.05268097 -0.00809692 70.84449768 -0.01226807 C77.27757106 0.03818317 82.62219654 1.13976853 87.5144043 5.54785156 C93.54657481 12.72744582 95.58008579 23.05127993 98.22338867 31.85449219 C99.63757603 36.52168962 101.10771445 41.17117553 102.5769043 45.82128906 C102.8661377 46.74917236 103.15537109 47.67705566 103.45336914 48.63305664 C104.65568702 52.44062679 105.8906396 56.11693773 107.4753418 59.78613281 C108.98040704 63.32582329 110.06809474 66.83641692 111.1394043 70.52392578 C112.61695466 75.49733901 114.29929994 80.40385919 115.9519043 85.32128906 C116.29479492 86.34544922 116.63768555 87.36960937 116.9909668 88.42480469 C117.66597045 90.44079842 118.34157558 92.45659087 119.01782227 94.47216797 C119.8347193 96.9091943 120.64822835 99.34730169 121.4597168 101.78613281 C122.57087061 105.12371797 123.69330639 108.45736138 124.8190918 111.79003906 C128.1480246 121.67147067 131.41423489 131.54905629 134.29467773 141.57128906 C136.00970531 147.52844467 137.94489056 153.39481849 139.9519043 159.25878906 C140.4534238 160.75828171 140.9535123 162.25825402 141.4519043 163.75878906 C141.80768555 164.82613281 141.80768555 164.82613281 142.1706543 165.91503906 C151.9519043 195.25878906 151.9519043 195.25878906 152.97143555 198.32910156 C153.58432229 200.16043644 154.20538417 201.9890791 154.83862305 203.81347656 C155.10288086 204.57917969 155.36713867 205.34488281 155.6394043 206.13378906 C155.87014648 206.79121094 156.10088867 207.44863281 156.33862305 208.12597656 C157.10943061 210.80661942 157.50874517 213.50703105 157.9519043 216.25878906 C158.66767734 216.18791863 159.38345037 216.11704821 160.12091351 216.04403019 C170.13992594 215.15410868 180.09359091 215.1241933 190.14453125 215.14526367 C192.04790241 215.14554628 193.95127368 215.14538637 195.85464478 215.14482117 C200.98388636 215.14453608 206.11310422 215.15038597 211.24234033 215.15739512 C216.61681511 215.16367689 221.99129054 215.16423626 227.36576843 215.16542053 C237.52618172 215.16851969 247.68658415 215.17671389 257.84699267 215.18677002 C269.42143763 215.19797526 280.99588313 215.2034527 292.57033217 215.20846546 C316.36419554 215.21889777 340.15804931 215.23646964 363.9519043 215.25878906 C364.15228806 214.71935669 364.35267181 214.17992432 364.55912781 213.62414551 C364.82498184 212.91125366 365.09083588 212.19836182 365.36474609 211.46386719 C365.75813423 210.40721863 365.75813423 210.40721863 366.1594696 209.32922363 C367.26882212 206.43076169 368.51336719 203.59860883 369.7644043 200.75878906 C374.04010665 190.83873521 377.95599097 180.81295912 381.0144043 170.44628906 C382.49165368 165.48564917 384.37456126 160.95091237 386.5925293 156.28222656 C389.09697907 150.71198482 391.12875174 144.9544661 393.22998047 139.22265625 C395.05694078 134.25273108 396.90957256 129.29513131 398.8894043 124.38378906 C399.23100586 123.53429687 399.57260742 122.68480469 399.92456055 121.80957031 C400.26358398 120.9678125 400.60260742 120.12605469 400.9519043 119.25878906 C401.91183013 116.86098268 402.87024861 114.46258964 403.8269043 112.06347656 C404.65324397 110.00336584 405.48776758 107.94653295 406.3269043 105.89160156 C409.37699244 98.37758235 412.23056048 90.82937769 414.85961914 83.15698242 C416.3748366 78.76348798 418.07490923 74.51109647 419.9519043 70.25878906 C420.6119043 70.25878906 421.2719043 70.25878906 421.9519043 70.25878906 C422.1375293 69.68128906 422.3231543 69.10378906 422.5144043 68.50878906 C424.62763207 65.2011282 427.3033213 63.49571398 430.9519043 62.25878906 C435.58767768 61.9127157 439.11087606 62.84620917 443.2644043 64.88378906 C447.48768491 68.61599054 449.77614843 71.84142559 450.19018555 77.53613281 C449.93345417 81.54703442 449.07615593 84.71479974 447.7644043 88.50878906 C447.42820068 89.48549561 447.42820068 89.48549561 447.08520508 90.48193359 C445.35900845 95.3858739 443.29951904 100.08586112 441.0690918 104.78222656 C439.71846512 107.77627312 438.7478308 110.81720473 437.7644043 113.94628906 C436.81889272 116.63736047 435.65799484 119.17430932 434.4519043 121.75878906 C432.63082606 125.67653898 431.12041764 129.53683919 429.81518555 133.64941406 C426.47570448 143.74341113 422.43435496 153.62821408 418.56494141 163.52807617 C416.33052466 169.25473487 414.16316071 175.00440072 412.01708984 180.76464844 C410.34550931 185.24029825 408.60582585 189.68282276 406.8112793 194.11035156 C406.01237671 196.10760802 405.25610162 198.11472411 404.5144043 200.13378906 C402.9152484 204.44119284 401.12559282 208.66383724 399.34643555 212.89941406 C397.30497063 217.81722872 395.34446332 222.76620103 393.3815918 227.71582031 C392.67389648 229.46958984 392.67389648 229.46958984 391.9519043 231.25878906 C391.70585449 231.87633057 391.45980469 232.49387207 391.20629883 233.13012695 C389.83494388 236.47419152 388.44761018 239.33536633 386.0769043 242.07128906 C385.60510742 242.63460937 385.13331055 243.19792969 384.6472168 243.77832031 C381.20311894 246.78595416 377.37483763 247.51066027 372.91159058 247.68054199 C371.89714937 247.72044502 370.88270817 247.76034805 369.83752632 247.80146027 C368.71495367 247.83314049 367.59238102 247.86482071 366.43579102 247.89746094 C364.61211659 247.95492115 364.61211659 247.95492115 362.75160027 248.01354218 C346.66687027 248.44353767 330.57704497 248.25284698 314.48924768 248.11545897 C307.12340001 248.0527506 299.75759706 248.00686171 292.39157104 247.97106934 C291.31191987 247.96577918 290.2322687 247.96048902 289.11990082 247.95503855 C285.80609017 247.93895397 282.49227853 247.92308576 279.1784668 247.90722656 C265.56033603 247.84161761 251.94264957 247.76319785 238.32495117 247.63476562 C228.31699366 247.54050468 218.3094036 247.47795879 208.30102623 247.45266294 C203.02456601 247.4380978 197.74931525 247.4073939 192.47327042 247.33778381 C187.53305482 247.27288081 182.59443066 247.24983817 177.65381432 247.25911331 C175.84369155 247.25504056 174.03352743 247.23552354 172.2237606 247.19939804 C162.82250115 246.64759088 162.82250115 246.64759088 154.58288193 250.22245789 C153.01596446 252.52873018 151.95569162 254.66640879 150.9519043 257.25878906 C150.0237793 258.77472656 150.0237793 258.77472656 149.0769043 260.32128906 C148.7056543 260.96066406 148.3344043 261.60003906 147.9519043 262.25878906 C151.31259204 263.93913294 155.11161387 263.40132119 158.80780029 263.39682007 C159.73632569 263.39964135 160.66485108 263.40246263 161.62151361 263.4053694 C164.75215996 263.4137436 167.88277108 263.41505606 171.01342773 263.41650391 C173.25026551 263.42117007 175.48710233 263.4263133 177.72393799 263.43190002 C182.55083884 263.44319729 187.37773346 263.45162361 192.20464325 263.45801926 C199.8347963 263.46867919 207.46490468 263.48891867 215.09503174 263.51113892 C225.79178433 263.54169608 236.48853759 263.57092174 247.18530273 263.59667969 C247.86445804 263.59831787 248.54361334 263.59995605 249.24334911 263.60164388 C260.24518945 263.62791943 271.24703314 263.64656754 282.24889156 263.66327159 C293.54236597 263.68069539 304.83577478 263.70973416 316.12920022 263.74816096 C322.47081385 263.76925582 328.8123335 263.78469174 335.15398407 263.78696823 C341.11951305 263.78911214 347.08484642 263.80495543 353.05031586 263.83135796 C355.24086428 263.83856237 357.43143637 263.84064641 359.62199402 263.83725548 C362.61091972 263.83336753 365.59921861 263.84779395 368.58807373 263.86679077 C369.45636865 263.86126108 370.32466358 263.85573138 371.21927047 263.85003412 C378.49012678 263.92988386 383.59754107 266.21038945 388.9519043 271.25878906 C390.18174014 274.63704185 390.0531347 277.94559191 390.0144043 281.50878906 C390.00538086 282.58644531 389.99635742 283.66410156 389.98706055 284.77441406 C389.9696582 286.00417969 389.9696582 286.00417969 389.9519043 287.25878906 C388.9619043 287.58878906 387.9719043 287.91878906 386.9519043 288.25878906 C386.6837793 288.87753906 386.4156543 289.49628906 386.1394043 290.13378906 C384.38844266 293.26708884 382.2248008 293.88363455 378.9519043 295.25878906 C375.71926117 295.76372719 375.71926117 295.76372719 372.09387207 295.93423462 C371.40964471 295.96723085 370.72541736 296.00022708 370.02045584 296.0342232 C359.58214737 296.4792433 349.12595514 296.43229045 338.68041992 296.45166016 C336.26742439 296.45957809 333.85442999 296.46784803 331.44143677 296.47644043 C324.25781299 296.50018795 317.07418437 296.51553687 309.89053464 296.5285005 C307.85860925 296.53222573 305.8266845 296.53619763 303.79475975 296.54025316 C291.13952951 296.56546076 278.48429787 296.58748242 265.82904816 296.59998131 C262.91329443 296.60291016 259.99754075 296.605872 257.08178711 296.60888672 C256.35724238 296.60963277 255.63269766 296.61037882 254.88619703 296.61114748 C243.11700071 296.62383505 231.34795424 296.65712326 219.57882816 296.69868855 C207.4645491 296.74111982 195.35034702 296.76467605 183.23599386 296.76990187 C176.44619187 296.77331037 169.65662607 296.78500274 162.86689758 296.81800461 C156.49075507 296.84803186 150.11502485 296.85441586 143.73882675 296.84262085 C141.40072468 296.84239979 139.06260368 296.85073129 136.72456741 296.86827469 C133.53100935 296.89093401 130.33895141 296.88268576 127.14538574 296.86679077 C126.22242911 296.88067286 125.29947248 296.89455495 124.34854746 296.9088577 C118.03216956 296.83147857 113.8501954 295.2892084 108.9519043 291.25878906 C105.7114205 287.60285863 103.92259628 283.95705763 103.5065918 279.10644531 C104.56643976 272.3289965 108.65255513 266.17982024 111.9519043 260.25878906 C112.2819043 259.59878906 112.6119043 258.93878906 112.9519043 258.25878906 C113.6119043 258.25878906 114.2719043 258.25878906 114.9519043 258.25878906 C115.20198242 257.411875 115.45206055 256.56496094 115.7097168 255.69238281 C117.05220248 251.98154976 118.82597749 248.70203714 120.8269043 245.32128906 C121.16592773 244.73927734 121.50495117 244.15726563 121.85424805 243.55761719 C122.19327148 242.97560547 122.53229492 242.39359375 122.8815918 241.79394531 C123.21827881 241.21290039 123.55496582 240.63185547 123.90185547 240.03320312 C124.62028983 238.81916432 125.36131955 237.61829228 126.12109375 236.4296875 C127.75893404 233.79519489 128.93839934 231.84760512 129.01049805 228.70410156 C128.80553711 227.93839844 128.60057617 227.17269531 128.3894043 226.38378906 C128.06069336 225.10568359 128.06069336 225.10568359 127.7253418 223.80175781 C126.545289 219.92188725 125.30772165 216.08096764 123.9519043 212.25878906 C123.49040763 210.88484755 123.03215006 209.5098144 122.5769043 208.13378906 C122.3294043 207.39515625 122.0819043 206.65652344 121.8269043 205.89550781 C121.15122303 203.8594147 120.48671557 201.81961143 119.8269043 199.77832031 C117.84527621 193.68705685 115.79458071 187.75103077 113.2019043 181.88378906 C111.04931171 176.90380998 110.22224558 172.66561467 109.9519043 167.25878906 C109.2919043 167.25878906 108.6319043 167.25878906 107.9519043 167.25878906 C107.78174805 166.49695313 107.6115918 165.73511719 107.4362793 164.95019531 C105.77127675 157.83618805 105.77127675 157.83618805 103.0769043 151.07128906 C100.80449488 146.27684949 99.40259756 141.27548596 97.95068359 136.19067383 C96.35366531 130.59959465 94.65419248 125.04915774 92.8894043 119.50878906 C90.82620533 113.02341889 88.79319409 106.53127177 86.8112793 100.02050781 C86.19883362 98.0523301 85.55173568 96.09479496 84.8815918 94.14550781 C83.82553074 90.86639384 83.36167655 87.67355783 82.9519043 84.25878906 C82.2919043 84.25878906 81.6319043 84.25878906 80.9519043 84.25878906 C80.78174805 83.49695313 80.6115918 82.73511719 80.4362793 81.95019531 C78.77127675 74.83618805 78.77127675 74.83618805 76.0769043 68.07128906 C73.36515351 62.38804125 71.83939591 56.3427574 70.11987305 50.30566406 C69.22787047 47.17608349 68.26061076 44.08678443 67.2019043 41.00878906 C66.2162782 38.05191076 65.51932221 35.30603344 64.9519043 32.25878906 C63.62218849 32.26878181 63.62218849 32.26878181 62.26560974 32.27897644 C53.89433337 32.33919181 45.52313018 32.38481641 37.15168667 32.41422558 C32.84826321 32.42985364 28.54501934 32.45103934 24.24169922 32.48510742 C20.08549812 32.51780333 15.92946932 32.53566358 11.77314949 32.54342079 C10.19077914 32.54894599 8.60841776 32.55973534 7.02612114 32.57597923 C4.80252893 32.59789018 2.57964054 32.60075039 0.35595703 32.59936523 C-0.90757095 32.60602707 -2.17109894 32.6126889 -3.47291565 32.61955261 C-8.15216931 32.14737942 -12.15210552 30.8912111 -15.7902832 27.75878906 C-19.55062066 22.7795836 -20.47072945 19.49263681 -20.0480957 13.25878906 C-16.73946813 4.06815693 -9.40095823 -0.04913425 0 0 Z " fill="#060606" transform="translate(35.048095703125,53.7412109375)"/>
<path d="M0 0 C0.495 1.485 0.495 1.485 1 3 C1.66 3 2.32 3 3 3 C4.65096248 9.27569336 5.282669 15.08270396 5.22705078 21.55883789 C5.22734283 22.46723419 5.22763489 23.37563049 5.22793579 24.31155396 C5.2265544 27.28202223 5.21104983 30.25223237 5.1953125 33.22265625 C5.19157813 35.29487471 5.18873316 37.36709494 5.18673706 39.4393158 C5.17913401 44.86934359 5.15951433 50.29926286 5.1373291 55.72924805 C5.11679871 61.27977023 5.10772001 66.8303101 5.09765625 72.38085938 C5.07626511 83.2539537 5.04216967 94.12696779 5 105 C5.78318604 104.04859131 6.56637207 103.09718262 7.37329102 102.11694336 C9.39217475 99.66441811 11.47459443 97.5821833 13.9375 95.5625 C16.53982775 93.34930537 18.83265328 91.13979287 21 88.5 C23.72185317 85.20279575 26.72639888 82.45556033 29.99609375 79.70703125 C31.29559867 78.60004558 32.5621161 77.45264406 33.78515625 76.26171875 C37.24249332 72.96189135 40.01924706 71.03056631 44.8828125 70.765625 C50.36237427 71.37221855 54.73477415 73.67151286 58.5 77.625 C61.36840068 82.16663441 61.59715977 85.68703444 61 91 C58.25271753 97.68903558 53.16822199 102.07476855 48 107 C47.175 107.845625 46.35 108.69125 45.5 109.5625 C42.47121483 112.51556555 39.30345388 115.29068015 36.1328125 118.08984375 C33.65818904 120.3061274 31.31813853 122.62085782 29 125 C28.41089844 125.5671875 27.82179688 126.134375 27.21484375 126.71875 C26.58707031 127.3271875 25.95929688 127.935625 25.3125 128.5625 C24.73113281 129.12066406 24.14976562 129.67882812 23.55078125 130.25390625 C21.922773 131.92773104 21.922773 131.92773104 21.02734375 134.0078125 C19.78660327 136.41381114 18.34518159 137.61118007 16.25 139.3125 C13.59967741 141.54485057 11.28717251 143.73169554 9.125 146.4375 C3.60981159 153.11936288 -2.51355853 158.47245755 -11.25 159.3125 C-19.2589333 158.64508889 -24.04765592 154.39373531 -29.53125 148.8046875 C-31 147 -31 147 -31 145 C-31.66 145 -32.32 145 -33 145 C-34.55078125 143.35546875 -34.55078125 143.35546875 -36.3125 141.1875 C-38.99985668 138.00289853 -41.39781819 136.10127272 -45 134 C-46 132.33333333 -47 130.66666667 -48 129 C-53.54805837 122.87133087 -59.83914073 117.47360783 -66.17578125 112.18359375 C-69.94922976 108.98961448 -72.52289821 106.30800312 -75 102 C-76.73938777 100.15395166 -78.54065913 98.39576057 -80.37890625 96.6484375 C-82.91487212 94.0696963 -83.95653055 92.44338839 -84.3125 88.8125 C-83.8369011 83.01019343 -82.72172551 78.6377389 -78.4375 74.5625 C-73.37410089 71.31673134 -68.92132254 71.55421862 -63 72 C-57.38099351 73.83698289 -53.95466086 77.79171481 -50 82 C-48.824375 83.175625 -48.824375 83.175625 -47.625 84.375 C-41.08333333 90.91666667 -34.54166667 97.45833333 -28 104 C-27.99635437 102.7855722 -27.99270874 101.57114441 -27.98895264 100.31991577 C-27.95200395 88.87246357 -27.89423238 77.42528041 -27.81609726 65.97803307 C-27.77659608 60.0929287 -27.7444204 54.20797456 -27.72900391 48.32275391 C-27.71385496 42.64267042 -27.67944012 36.96299985 -27.63169098 31.28310013 C-27.61685911 29.1166302 -27.60895795 26.95010132 -27.60811615 24.78358078 C-27.60575025 21.74768857 -27.57869992 18.71294099 -27.54589844 15.67724609 C-27.55344398 14.33504501 -27.55344398 14.33504501 -27.56114197 12.96572876 C-27.46979997 7.49790355 -26.66439447 4.32179604 -23 0 C-15.08642915 -6.1000442 -8.10186442 -6.55865215 0 0 Z " fill="#070607" transform="translate(305,51)"/>
<path d="M0 0 C1.0828125 0.33515625 2.165625 0.6703125 3.28125 1.015625 C6.79360928 2.28734129 8.4757369 4.28156281 11 7 C11.804375 7.598125 12.60875 8.19625 13.4375 8.8125 C22.74507727 16.75799279 27.87965406 28.61931432 29.25 40.625 C29.84555339 52.35928558 26.43130614 65.94490886 18.5625 74.8125 C17.06451718 76.2328282 15.54510934 77.63108734 14 79 C12.80927587 80.2886951 11.62152223 81.58014464 10.4375 82.875 C1.28823412 91.81442033 -11.69424015 93.62544709 -23.94897461 93.54418945 C-37.22859609 93.14616265 -47.23901235 88.19399879 -56.4765625 78.703125 C-57.30929688 77.81109375 -58.14203125 76.9190625 -59 76 C-59.62648437 75.37609375 -60.25296875 74.7521875 -60.8984375 74.109375 C-68.70694414 65.30994112 -70.91814872 50.92072493 -70.484375 39.5703125 C-69.17613237 29.92729828 -64.83983076 21.66185796 -59 14 C-58.38318359 13.17242187 -58.38318359 13.17242187 -57.75390625 12.328125 C-51.41868518 4.26889295 -44.55156802 0.48165822 -35 -3 C-33.865625 -3.433125 -32.73125 -3.86625 -31.5625 -4.3125 C-19.85498532 -6.57184494 -10.85504561 -4.10328185 0 0 Z M-35.25 33.3125 C-38.46516742 38.25007854 -39.33900976 42.3467517 -38.4375 48.125 C-37.3192865 52.73763067 -35.93617789 55.15255217 -32 58 C-27.79362357 60.46226913 -24.35940485 62 -19.4375 62 C-13.93435746 60.39908581 -8.81346438 58.83934239 -5.5 53.875 C-2.9595631 48.56730148 -3.18257273 43.09558256 -4.66015625 37.5 C-6.35417497 33.04128406 -8.29351408 29.7059826 -12.80859375 27.58984375 C-21.93615002 25.13305053 -28.68952182 26.56978631 -35.25 33.3125 Z " fill="#060606" transform="translate(217,360)"/>
<path d="M0 0 C0.73347656 0.25265625 1.46695313 0.5053125 2.22265625 0.765625 C11.65489509 4.71670657 19.72854 14.54016469 24.23046875 23.4296875 C29.54620495 37.0119359 29.17027372 51.39760918 23.84765625 64.9296875 C20.11216363 72.57391299 14.46142352 78.54157523 8 84 C7.34 84 6.68 84 6 84 C5.505 85.485 5.505 85.485 5 87 C-5.78314199 93.76589301 -19.39912175 95.46979556 -31.86425781 93.51660156 C-38.13390006 92.0000763 -43.5807827 88.3672138 -49 85 C-49.69222656 84.7215625 -50.38445312 84.443125 -51.09765625 84.15625 C-54.18622285 82.27901034 -56.03484009 79.31844741 -58.125 76.4375 C-61.00654224 72.10895906 -61.00654224 72.10895906 -65 69 C-65.95471148 66.50168959 -66.79002159 64.05470258 -67.5625 61.5 C-67.78574951 60.77184082 -68.00899902 60.04368164 -68.23901367 59.29345703 C-69.76428659 54.16273382 -70.74036687 49.36575144 -71 44 C-71.06058594 43.10539062 -71.12117188 42.21078125 -71.18359375 41.2890625 C-70.94544069 37.02257581 -69.70866945 33.49030248 -68.25 29.5 C-67.99734375 28.76652344 -67.7446875 28.03304687 -67.484375 27.27734375 C-65.03033274 20.41829563 -61.59324141 15.31252896 -56.3125 10.25 C-53.25259761 7.42165794 -53.25259761 7.42165794 -51 4 C-48.97176935 2.93220475 -46.90120342 1.94404675 -44.8125 1 C-43.68457031 0.484375 -42.55664062 -0.03125 -41.39453125 -0.5625 C-26.81175632 -6.73794439 -14.64959603 -5.15068599 0 0 Z M-36 33 C-39.21224857 38.46082257 -39.94230943 43.79304873 -39 50 C-36.34774959 55.03013009 -33.32872182 58.82626038 -27.9375 60.8125 C-22.01156846 62.63660596 -16.62411484 61.90342166 -11.140625 59.0234375 C-6.86994696 55.91556784 -5.1770781 51.963346 -4 47 C-3.37939373 41.93171545 -4.63189875 38.4912265 -7 34 C-9.65225641 30.93970414 -12.09726824 28.26264851 -16 27 C-24.17397064 26.53732242 -30.13784944 26.87138806 -36 33 Z " fill="#070707" transform="translate(386,360)"/>
<path d="M0 0 C2.52170416 3.78255624 2.26720692 6.76485768 2.22705078 11.14331055 C2.22734283 11.97280212 2.22763489 12.8022937 2.22793579 13.65692139 C2.22654179 16.40029337 2.21097732 19.14339418 2.1953125 21.88671875 C2.19158262 23.78815055 2.18873553 25.68958427 2.18673706 27.59101868 C2.17909865 32.59698793 2.15944834 37.60284123 2.1373291 42.60876465 C2.11687517 47.71637402 2.10773631 52.82400211 2.09765625 57.93164062 C2.07620268 67.95447804 2.04206419 77.97722938 2 88 C1.34 88 0.68 88 0 88 C-0.9400592 81.65716759 -1.14575111 75.48881086 -1.1328125 69.08203125 C-1.13413177 68.03833374 -1.13545105 66.99463623 -1.1368103 65.91931152 C-1.1387159 62.55034348 -1.13241818 59.18145948 -1.125 55.8125 C-1.12411377 54.6717099 -1.12322754 53.5309198 -1.12231445 52.3555603 C-1.10631738 34.88506638 -0.86461737 17.45101385 0 0 Z " fill="#342E34" transform="translate(308,58)"/>
<path d="M0 0 C24.09 0 48.18 0 73 0 C80 19 80 19 81 27 C78.50751469 24.02978834 77.41033955 21.56765063 76.5 17.8125 C75.37734318 13.38127255 74.07057017 9.08730925 72.55078125 4.77734375 C72 3 72 3 72 1 C48.24 1 24.48 1 0 1 C0 0.67 0 0.34 0 0 Z " fill="#403F3F" transform="translate(28,85)"/>
<path d="M0 0 C0.49916931 0.16076523 0.99833862 0.32153046 1.51263428 0.48716736 C4.93417277 1.19260308 8.31907645 1.17803242 11.79785156 1.20532227 C12.96915619 1.22017166 12.96915619 1.22017166 14.16412354 1.23532104 C16.73959341 1.26685373 19.31508171 1.29166086 21.890625 1.31640625 C23.67853265 1.33698289 25.46643551 1.35797955 27.2543335 1.37937927 C31.95605589 1.43452663 36.65782166 1.48396823 41.35961914 1.53222656 C46.15905611 1.58249518 50.95843023 1.63815325 55.7578125 1.69335938 C65.17182129 1.80085121 74.58588469 1.90231607 84 2 C84 2.33 84 2.66 84 3 C55.95 3 27.9 3 -1 3 C-0.67 2.01 -0.34 1.02 0 0 Z " fill="#706B71" transform="translate(181,316)"/>
<path d="M0 0 C1.28117706 0.00007553 2.56235413 0.00015106 3.88235474 0.00022888 C5.28599079 0.00533591 6.68962645 0.01055191 8.09326172 0.01586914 C9.52529857 0.01773394 10.95733606 0.01915755 12.38937378 0.02015686 C16.16068276 0.0239772 19.93195329 0.03380337 23.70324707 0.04486084 C27.55069458 0.05508534 31.39814829 0.05965671 35.24560547 0.06469727 C42.79640425 0.07542606 50.34717135 0.0924967 57.89794922 0.11352539 C57.89794922 0.44352539 57.89794922 0.77352539 57.89794922 1.11352539 C50.73154506 2.07164349 43.75451303 2.21573128 36.53076172 2.14086914 C34.15836727 2.12823673 31.78597137 2.11587477 29.41357422 2.10375977 C25.70031128 2.07883688 21.98712493 2.05070578 18.27392578 2.01757812 C14.67203262 1.98749128 11.07023989 1.96964993 7.46826172 1.95336914 C6.35266876 1.93990952 5.23707581 1.92644989 4.087677 1.9125824 C3.05585297 1.90920364 2.02402893 1.90582489 0.9609375 1.90234375 C-0.40065994 1.89115761 -0.40065994 1.89115761 -1.7897644 1.87974548 C-4.37763693 1.95911204 -4.37763693 1.95911204 -7.10205078 4.11352539 C-7.43205078 3.12352539 -7.76205078 2.13352539 -8.10205078 1.11352539 C-5.33354255 -0.27072872 -3.09785894 -0.00607423 0 0 Z " fill="#4C4A4B" transform="translate(196.10205078125,299.886474609375)"/>
<path d="M0 0 C1.65 0 3.3 0 5 0 C4 3 4 3 0.5625 5 C-7.83602314 8.89745706 -15.57263861 10.4788042 -24.8125 10.3125 C-26.18438477 10.31733398 -26.18438477 10.31733398 -27.58398438 10.32226562 C-32.13932021 10.28582294 -35.87477556 10.17071559 -40 8 C-37.64393391 7.21464464 -36.1942618 6.96081271 -33.734375 7.45703125 C-25.25235853 9.14131738 -16.98139705 8.12259971 -8.75390625 5.75390625 C-5.85202862 4.95949152 -2.97282268 4.45095837 0 4 C0 2.68 0 1.36 0 0 Z " fill="#302E32" transform="translate(220,443)"/>
<path d="M0 0 C2.26440046 1.15540105 3.99496569 2.40625478 6 4 C3.37886292 4 1.49064888 3.68707555 -1 3 C-1 2.34 -1 1.68 -1 1 C-2.65 1 -4.3 1 -6 1 C-6 1.66 -6 2.32 -6 3 C-7.65 3 -9.3 3 -11 3 C-11.33 3.99 -11.66 4.98 -12 6 C-14.29167646 8.9791794 -16.33535945 9.5047783 -20 10 C-20 9.01 -20 8.02 -20 7 C-19.34 7 -18.68 7 -18 7 C-17.7215625 6.13375 -17.7215625 6.13375 -17.4375 5.25 C-13.27480575 -1.26552144 -6.90915987 -2.01517163 0 0 Z " fill="#322D30" transform="translate(475,117)"/>
<path d="M0 0 C3.96 0 7.92 0 12 0 C13.1567876 2.9961705 14.3005467 5.99630732 15.4375 9 C15.92573242 10.25876953 15.92573242 10.25876953 16.42382812 11.54296875 C18.38234813 16.75222815 19.54388972 21.44958754 20 27 C17.50751469 24.02978834 16.41033955 21.56765063 15.5 17.8125 C14.37734318 13.38127255 13.07057017 9.08730925 11.55078125 4.77734375 C11 3 11 3 11 1 C7.37 1 3.74 1 0 1 C0 0.67 0 0.34 0 0 Z " fill="#534F51" transform="translate(89,85)"/>
<path d="M0 0 C0.86787245 2.96975105 1.08259075 5.53817078 1 8.625 C0.87337758 11.94299631 0.87337758 11.94299631 2 15 C2.99 15 3.98 15 5 15 C5.66 15.33 6.32 15.66 7 16 C7.40729228 18.32156597 7.74438677 20.6568787 8 23 C-0.40892729 16.08855292 -0.40892729 16.08855292 -2 13 C-2.44688385 8.17365442 -1.75460022 4.49616307 0 0 Z " fill="#483F46" transform="translate(223,130)"/>
<path d="M0 0 C1.15298285 3.45894855 0.64439824 4.78181267 -0.83984375 8.01953125 C-3.26136635 12.15324155 -6.6549465 16.82747325 -11 19 C-11.33 18.01 -11.66 17.02 -12 16 C-8.08823529 10.41176471 -8.08823529 10.41176471 -4.6875 9.125 C-3.8521875 9.063125 -3.8521875 9.063125 -3 9 C-2.87625 8.2575 -2.7525 7.515 -2.625 6.75 C-2.04513299 4.19858515 -1.26291261 2.2732427 0 0 Z " fill="#262223" transform="translate(241,420)"/>
<path d="M0 0 C0.33 0 0.66 0 1 0 C1.33 3.3 1.66 6.6 2 10 C2.99 10.33 3.98 10.66 5 11 C5.74513723 13.09993221 6 14.77431099 6 17 C6.66 17.99 7.32 18.98 8 20 C4.19510255 18.50521886 2.33809165 16.30557786 0 13 C-1.49084832 8.52745503 -1.49084832 4.47254497 0 0 Z " fill="#3E3C3F" transform="translate(16,64)"/>
<path d="M0 0 C0.33 0 0.66 0 1 0 C1 9.24 1 18.48 1 28 C-1.60072164 22.79855672 -2.15895137 19.4600327 -2.1875 13.6875 C-2.20167969 12.39199219 -2.21585938 11.09648437 -2.23046875 9.76171875 C-2.00819391 6.1337412 -1.32059222 3.3667272 0 0 Z " fill="#4C474A" transform="translate(149,390)"/>
<path d="M0 0 C2.57725335 3.05372036 3.69567868 5.7054171 4.6875 9.5625 C4.93886719 10.51253906 5.19023437 11.46257812 5.44921875 12.44140625 C6 15 6 15 6 18 C6.66 18.33 7.32 18.66 8 19 C8 21.31 8 23.62 8 26 C6.03013786 23.0452068 5.1339692 20.67321263 4.0625 17.3125 C2.87718685 13.63179075 1.63950629 10.02089167 0.1875 6.4375 C-1 3 -1 3 0 0 Z " fill="#352F32" transform="translate(149,231)"/>
<path d="M0 0 C0.763125 0.20625 1.52625 0.4125 2.3125 0.625 C1.6525 2.275 0.9925 3.925 0.3125 5.625 C1.9625 7.605 3.6125 9.585 5.3125 11.625 C2.3125 11.625 2.3125 11.625 0.70703125 10.3828125 C0.18496094 9.84398437 -0.33710938 9.30515625 -0.875 8.75 C-1.40480469 8.21632812 -1.93460937 7.68265625 -2.48046875 7.1328125 C-3.6875 5.625 -3.6875 5.625 -3.6875 3.625 C-4.3475 3.625 -5.0075 3.625 -5.6875 3.625 C-5.6875 2.965 -5.6875 2.305 -5.6875 1.625 C-2.6875 -0.375 -2.6875 -0.375 0 0 Z " fill="#191719" transform="translate(277.6875,192.375)"/>
<path d="M0 0 C0.66 0 1.32 0 2 0 C3.2065625 1.2375 3.2065625 1.2375 4.4375 2.5 C6.76122416 5.34916193 6.76122416 5.34916193 10 5 C12.07639763 7.87501211 13.3543999 10.51375944 14 14 C10.22233212 12.74077737 8.74769682 10.87549668 6 8 C5.18015625 7.21109375 5.18015625 7.21109375 4.34375 6.40625 C2.85760866 4.97618946 1.42485781 3.49113026 0 2 C0 1.34 0 0.68 0 0 Z " fill="#161315" transform="translate(236,158)"/>
<path d="M0 0 C0 0.33 0 0.66 0 1 C-2.97 1 -5.94 1 -9 1 C-9.2475 1.7425 -9.495 2.485 -9.75 3.25 C-11.09147301 6.20124062 -12.60905526 7.84814974 -15 10 C-14.41196203 6.97580475 -13.77321882 3.98241547 -13 1 C-8.20862412 -0.6290678 -4.94367454 -1.20577428 0 0 Z " fill="#252224" transform="translate(355,123)"/>
<path d="M0 0 C1.65 0 3.3 0 5 0 C4 3 4 3 2.43359375 4.09765625 C-2.32430177 6.39746093 -6.82942547 7.89201974 -12 9 C-12 8.34 -12 7.68 -12 7 C-10.75336669 6.49166409 -9.50250613 5.99368855 -8.25 5.5 C-7.55390625 5.2215625 -6.8578125 4.943125 -6.140625 4.65625 C-4 4 -4 4 0 4 C0 2.68 0 1.36 0 0 Z " fill="#615B60" transform="translate(220,443)"/>
<path d="M0 0 C0 0.66 0 1.32 0 2 C-4.95 2 -9.9 2 -15 2 C-15 1.01 -15 0.02 -15 -1 C-9.53891111 -2.4002792 -5.30723432 -1.42705634 0 0 Z " fill="#363336" transform="translate(372,386)"/>
<path d="M0 0 C0.66 0 1.32 0 2 0 C1.72349609 1.28777344 1.72349609 1.28777344 1.44140625 2.6015625 C0.97804327 6.16904739 1.27242855 8.85403352 1.9375 12.375 C2.13214844 13.43460937 2.32679688 14.49421875 2.52734375 15.5859375 C2.68332031 16.38257813 2.83929688 17.17921875 3 18 C0.47363383 16.10522537 0.01889366 15.10593946 -0.546875 11.93359375 C-0.61390625 10.77988281 -0.6809375 9.62617188 -0.75 8.4375 C-0.82734375 7.28121094 -0.9046875 6.12492187 -0.984375 4.93359375 C-1 2 -1 2 0 0 Z " fill="#3D393C" transform="translate(178,397)"/>
<path d="M0 0 C0.66 0 1.32 0 2 0 C0.63278874 5.77840229 -1.02751863 11.46002129 -5 16 C-5 12.28126818 -3.86764817 9.76581163 -2.5 6.3125 C-2.0359375 5.13300781 -1.571875 3.95351562 -1.09375 2.73828125 C-0.7328125 1.83464844 -0.371875 0.93101562 0 0 Z " fill="#4F494D" transform="translate(440,246)"/>
<path d="M0 0 C0.66 0 1.32 0 2 0 C2.33 1.32 2.66 2.64 3 4 C2.01 4.66 1.02 5.32 0 6 C0.33 6.66 0.66 7.32 1 8 C-0.32 8.33 -1.64 8.66 -3 9 C-3 9.99 -3 10.98 -3 12 C-3.66 12 -4.32 12 -5 12 C-3.41037341 7.96479403 -1.71767682 3.98188718 0 0 Z " fill="#3E383C" transform="translate(148,312)"/>
<path d="M0 0 C0.52078125 0.15339844 1.0415625 0.30679687 1.578125 0.46484375 C4.63278515 1.13982511 7.63015971 1.34411118 10.75 1.5625 C11.92046875 1.64628906 13.0909375 1.73007812 14.296875 1.81640625 C15.18890625 1.87699219 16.0809375 1.93757813 17 2 C17 2.33 17 2.66 17 3 C11.06 3 5.12 3 -1 3 C-0.67 2.01 -0.34 1.02 0 0 Z " fill="#665F67" transform="translate(181,316)"/>
<path d="M0 0 C2.16321167 3.24481751 3.6314591 6.35055759 5 10 C4.67 10.99 4.34 11.98 4 13 C3.54625 12.360625 3.0925 11.72125 2.625 11.0625 C1.16078274 8.90297594 1.16078274 8.90297594 -1 8 C-0.67 5.36 -0.34 2.72 0 0 Z " fill="#373337" transform="translate(178,225)"/>
<path d="M0 0 C1.23967448 3.58128182 1.02699061 6.36603322 0 10 C-2.0625 11.375 -2.0625 11.375 -4 12 C-2.87204037 7.89100419 -1.66489182 3.92438786 0 0 Z " fill="#454142" transform="translate(442,158)"/>
<path d="M0 0 C0.66 0.33 1.32 0.66 2 1 C1.60196439 3.88575819 1.20990931 4.82189513 -1.0625 6.75 C-1.701875 7.1625 -2.34125 7.575 -3 8 C-3.33 6.68 -3.66 5.36 -4 4 C-2.68 3.34 -1.36 2.68 0 2 C0 1.34 0 0.68 0 0 Z " fill="#1E1B1C" transform="translate(228,436)"/>
<path d="M0 0 C1.39746302 4.19238905 -0.15968125 6.10701803 -2 10 C-2.33 10.66 -2.66 11.32 -3 12 C-3.66 12 -4.32 12 -5 12 C-5 11.01 -5 10.02 -5 9 C-4.34 9 -3.68 9 -3 9 C-2.87625 8.2575 -2.7525 7.515 -2.625 6.75 C-2.04513299 4.19858515 -1.26291261 2.2732427 0 0 Z " fill="#797478" transform="translate(241,420)"/>
<path d="M0 0 C0.33 0.66 0.66 1.32 1 2 C0.0625 4.125 0.0625 4.125 -1 6 C-0.34 6.33 0.32 6.66 1 7 C0.38125 7.12375 -0.2375 7.2475 -0.875 7.375 C-3.19120832 7.87197356 -3.19120832 7.87197356 -5 10 C-4.300926 6.22500037 -2.74803773 2.74803773 0 0 Z " fill="#2B282A" transform="translate(326,374)"/>
<path d="M0 0 C3.00221784 4.50332676 4.31896025 8.57767579 4 14 C1.3184721 10.92307254 0.57912193 8.80265337 0.3125 4.75 C0.24675781 3.85796875 0.18101563 2.9659375 0.11328125 2.046875 C0.07589844 1.37140625 0.03851563 0.6959375 0 0 Z " fill="#443F41" transform="translate(105,98)"/>
<path d="M0 0 C4.19469571 0.59924224 8.00999834 1.57499941 12 3 C12 3.66 12 4.32 12 5 C7.61110675 4.33501617 4.0188515 2.81242323 0 1 C0 0.67 0 0.34 0 0 Z " fill="#4C484C" transform="translate(344,448)"/>
<path d="M0 0 C0.33 0.99 0.66 1.98 1 3 C-1.64 5.31 -4.28 7.62 -7 10 C-7.66 9.67 -8.32 9.34 -9 9 C-6 6 -3 3 0 0 Z " fill="#363133" transform="translate(335,131)"/>
<path d="M0 0 C0.33 0.99 0.66 1.98 1 3 C-1.97 5.475 -1.97 5.475 -5 8 C-5.66 7.67 -6.32 7.34 -7 7 C-4.66666667 4.66666667 -2.33333333 2.33333333 0 0 Z " fill="#2B2829" transform="translate(320,146)"/>
<path d="M0 0 C-0.6875 2.375 -0.6875 2.375 -2 5 C-4.625 6.3125 -4.625 6.3125 -7 7 C-3.86206897 0 -3.86206897 0 0 0 Z " fill="#282428" transform="translate(24,57)"/>
<path d="M0 0 C2.53408774 1.26704387 2.93209972 2.43123157 4.1875 4.9375 C4.55230469 5.64777344 4.91710937 6.35804688 5.29296875 7.08984375 C5.52628906 7.72019531 5.75960938 8.35054688 6 9 C5.67 9.66 5.34 10.32 5 11 C4.34 11 3.68 11 3 11 C2.01 7.37 1.02 3.74 0 0 Z " fill="#332E30" transform="translate(318,418)"/>
<path d="M0 0 C0.33 0.66 0.66 1.32 1 2 C1.99 2 2.98 2 4 2 C4.33 2.99 4.66 3.98 5 5 C4.34 5 3.68 5 3 5 C2.67 6.32 2.34 7.64 2 9 C0 3.375 0 3.375 0 0 Z " fill="#383436" transform="translate(122,151)"/>
<path d="M0 0 C2.62386487 3.06117568 3 3.73173127 3 8 C1.68 8.33 0.36 8.66 -1 9 C-0.67 6.03 -0.34 3.06 0 0 Z " fill="#2F292B" transform="translate(132,86)"/>
<path d="M0 0 C1.32 0.33 2.64 0.66 4 1 C4 1.66 4 2.32 4 3 C4.66 3.33 5.32 3.66 6 4 C5.67 5.32 5.34 6.64 5 8 C4.16382818 6.8562364 3.33113541 5.70992861 2.5 4.5625 C2.0359375 3.92441406 1.571875 3.28632813 1.09375 2.62890625 C0 1 0 1 0 0 Z " fill="#564E52" transform="translate(152,427)"/>
<path d="M0 0 C4.31392226 0.4793247 6.16569547 1.7457985 9 5 C7.68 5.33 6.36 5.66 5 6 C4.67 4.68 4.34 3.36 4 2 C2.68 2 1.36 2 0 2 C0 1.34 0 0.68 0 0 Z " fill="#474548" transform="translate(386,361)"/>
<path d="M0 0 C0.66 1.65 1.32 3.3 2 5 C-2 5 -2 5 -5 3 C-2.25 0 -2.25 0 0 0 Z " fill="#211F22" transform="translate(172,362)"/>
<path d="M0 0 C1 3 1 3 -0.4375 6.1875 C-1.2109375 7.5796875 -1.2109375 7.5796875 -2 9 C-2.66 8.01 -3.32 7.02 -4 6 C-3.34 6 -2.68 6 -2 6 C-1.855625 5.195625 -1.71125 4.39125 -1.5625 3.5625 C-1 1 -1 1 0 0 Z " fill="#454245" transform="translate(473,162)"/>
<path d="M0 0 C4 6 4 6 4 10 C3.01 9.67 2.02 9.34 1 9 C0.67 6.03 0.34 3.06 0 0 Z " fill="#686567" transform="translate(152,145)"/>
<path d="M0 0 C3.37462715 0.54723683 5.08235 1.0549 8 3 C8 3.66 8 4.32 8 5 C4.62496331 3.8141763 2.35277269 2.72426311 0 0 Z " fill="#6B6669" transform="translate(166,443)"/>
<path d="M0 0 C0.33 0.99 0.66 1.98 1 3 C0.34 3 -0.32 3 -1 3 C-1.33 3.99 -1.66 4.98 -2 6 C-2.99 6 -3.98 6 -5 6 C-5 5.34 -5 4.68 -5 4 C-4.34 4 -3.68 4 -3 4 C-2.67 3.01 -2.34 2.02 -2 1 C-1.34 0.67 -0.68 0.34 0 0 Z " fill="#0E0B0F" transform="translate(453,212)"/>
<path d="M0 0 C1.32 1.32 2.64 2.64 4 4 C2.02 4.99 2.02 4.99 0 6 C-0.66 5.01 -1.32 4.02 -2 3 C-1.34 3 -0.68 3 0 3 C0 2.01 0 1.02 0 0 Z " fill="#100D11" transform="translate(252,169)"/>
</svg>
