<?xml version="1.0" encoding="UTF-8"?>
<svg version="1.1" xmlns="http://www.w3.org/2000/svg" width="291" height="237">
<path d="M0 0 C96.03 0 192.06 0 291 0 C291 78.21 291 156.42 291 237 C194.97 237 98.94 237 0 237 C0 158.79 0 80.58 0 0 Z " fill="#4D6D7D" transform="translate(0,0)"/>
<path d="M0 0 C0.94796448 -0.00817749 1.89592896 -0.01635498 2.87261963 -0.02478027 C6.02477374 -0.04968981 9.17688263 -0.06616521 12.32910156 -0.08056641 C13.94015148 -0.08855192 13.94015148 -0.08855192 15.58374786 -0.09669876 C21.26936633 -0.12345559 26.95496265 -0.14282163 32.640625 -0.15722656 C38.52002153 -0.17387288 44.39885734 -0.21864371 50.27804184 -0.26959801 C54.79218199 -0.30322443 59.30618841 -0.31479906 63.8204422 -0.32045364 C65.98781871 -0.32717977 68.15518601 -0.34243695 70.3224411 -0.36634445 C73.35605234 -0.39789696 76.38814334 -0.39804729 79.421875 -0.390625 C80.31869995 -0.40703033 81.2155249 -0.42343567 82.13952637 -0.44033813 C86.6560547 -0.39507311 88.38450768 -0.28428719 92.00396729 2.6668396 C92.65266785 3.50042999 93.30136841 4.33402039 93.96972656 5.19287109 C94.29972656 5.52287109 94.62972656 5.85287109 94.96972656 6.19287109 C95.40891156 13.06269141 94.08990454 19.23525563 92.56347656 25.91162109 C92.31932007 27.01010376 92.07516357 28.10858643 91.8236084 29.24035645 C91.04688832 32.7263516 90.2584951 36.20958454 89.46972656 39.69287109 C88.93900407 42.06509377 88.40904786 44.43748802 87.87988281 46.81005859 C86.5853616 52.60634507 85.28126283 58.40041233 83.96972656 64.19287109 C79.17829372 61.86693834 74.556496 59.43287212 70.04394531 56.59130859 C69.00044922 55.93646484 67.95695312 55.28162109 66.88183594 54.60693359 C65.81771484 53.93404297 64.75359375 53.26115234 63.65722656 52.56787109 C62.57376953 51.88724609 61.4903125 51.20662109 60.37402344 50.50537109 C52.67298034 45.66170695 52.67298034 45.66170695 48.96972656 43.19287109 C49.62972656 39.23287109 50.28972656 35.27287109 50.96972656 31.19287109 C42.05972656 31.19287109 33.14972656 31.19287109 23.96972656 31.19287109 C21.95848988 38.11170326 21.95848988 38.11170326 21.96972656 45.19287109 C23.96643967 47.07602706 25.77613485 48.48990383 28.03222656 50.00537109 C28.69125977 50.46766113 29.35029297 50.92995117 30.02929688 51.40625 C31.51159917 52.44264826 32.99944173 53.47115181 34.49169922 54.49316406 C37.14673211 56.3142812 39.78369347 58.15966198 42.41894531 60.00927734 C54.5368886 68.49884104 66.74148147 76.86320441 78.96972656 85.19287109 C78.83260254 85.93037598 78.69547852 86.66788086 78.55419922 87.42773438 C78.37421387 88.40468262 78.19422852 89.38163086 78.00878906 90.38818359 C77.74122803 91.83475342 77.74122803 91.83475342 77.46826172 93.31054688 C77.15682323 95.11115548 76.88637012 96.91990123 76.67822266 98.73535156 C75.865555 104.41926575 75.865555 104.41926575 73.43261719 106.52026367 C68.11117171 109.63228696 62.68072376 112.39886153 57.09472656 115.00537109 C56.24136719 115.41207031 55.38800781 115.81876953 54.50878906 116.23779297 C48.23111049 119.19287109 48.23111049 119.19287109 45.96972656 119.19287109 C46.95972656 123.15287109 46.95972656 123.15287109 47.96972656 127.19287109 C56.3716643 124.68703001 64.08914095 120.98261253 71.96972656 117.19287109 C71.96972656 118.18287109 71.96972656 119.17287109 71.96972656 120.19287109 C68.84770651 121.69913227 65.72164257 123.19680352 62.59472656 124.69287109 C61.26054687 125.33675781 61.26054687 125.33675781 59.89941406 125.99365234 C59.04863281 126.39970703 58.19785156 126.80576172 57.32128906 127.22412109 C56.5357666 127.60117188 55.75024414 127.97822266 54.94091797 128.36669922 C52.96972656 129.19287109 52.96972656 129.19287109 50.96972656 129.19287109 C54.44708682 132.97321732 54.44708682 132.97321732 58.96972656 135.19287109 C61.00405696 134.44099253 61.00405696 134.44099253 63.03222656 133.25537109 C66.78667572 131.19287109 66.78667572 131.19287109 68.96972656 131.19287109 C68.36147621 135.53751646 67.70805264 139.86838977 66.96972656 144.19287109 C67.52152588 144.36157715 68.0733252 144.5302832 68.6418457 144.70410156 C74.17433882 146.46195834 79.2813616 148.59911469 84.40722656 151.31787109 C85.14223389 151.70749023 85.87724121 152.09710938 86.63452148 152.49853516 C96.22734665 157.7653499 105.68146989 165.24506038 109.44238281 175.85693359 C110.43638804 180.26000862 110.19226916 184.70904978 109.96972656 189.19287109 C108.31972656 188.86287109 106.66972656 188.53287109 104.96972656 188.19287109 C104.96972656 192.81287109 104.96972656 197.43287109 104.96972656 202.19287109 C101.96972656 201.19287109 101.96972656 201.19287109 100.54785156 199.01318359 C100.10957031 198.12373047 99.67128906 197.23427734 99.21972656 196.31787109 C98.77113281 195.43357422 98.32253906 194.54927734 97.86035156 193.63818359 C96.96972656 191.19287109 96.96972656 191.19287109 97.96972656 188.19287109 C98.22739964 184.95048482 98.41219464 181.71424789 98.57519531 178.46630859 C98.86813171 173.29446594 98.86813171 173.29446594 99.96972656 172.19287109 C99.30972656 171.86287109 98.64972656 171.53287109 97.96972656 171.19287109 C97.63972656 172.51287109 97.30972656 173.83287109 96.96972656 175.19287109 C96.52242187 174.82033203 96.07511719 174.44779297 95.61425781 174.06396484 C91.78760688 170.90519538 91.78760688 170.90519538 87.03222656 170.38037109 C86.35160156 170.64849609 85.67097656 170.91662109 84.96972656 171.19287109 C84.47472656 174.16287109 84.47472656 174.16287109 83.96972656 177.19287109 C82.97972656 176.86287109 81.98972656 176.53287109 80.96972656 176.19287109 C80.63972656 174.21287109 80.30972656 172.23287109 79.96972656 170.19287109 C79.03902344 170.47904297 78.10832031 170.76521484 77.14941406 171.06005859 C71.35419678 171.88627849 66.83664291 168.22945984 62.09472656 165.31787109 C61.13308594 164.74939453 60.17144531 164.18091797 59.18066406 163.59521484 C52.25214708 159.47529161 52.25214708 159.47529161 50.96972656 158.19287109 C48.35431641 158.09434442 45.76456447 158.0598687 43.14868164 158.06689453 C42.32911987 158.0650264 41.50955811 158.06315826 40.66516113 158.06123352 C38.87868884 158.0572193 37.09221139 158.05515375 35.30573463 158.05477142 C31.50828643 158.05136653 27.71101109 158.03001405 23.91362286 158.00954056 C16.83684296 157.97147344 9.76024343 157.94025353 2.68334961 157.94238281 C-2.2328562 157.94317022 -7.14843565 157.91978907 -12.06447792 157.88050079 C-13.9378916 157.87003915 -15.81137758 157.86851798 -17.68480492 157.87615204 C-20.31130912 157.88578351 -22.93592228 157.86457305 -25.56225586 157.83642578 C-26.33392593 157.84662247 -27.10559601 157.85681915 -27.90065002 157.86732483 C-33.72783785 157.75560584 -36.10141369 156.20164795 -40.03027344 152.19287109 C-44.44157167 143.37027462 -37.77718964 126.50900677 -35.59277344 117.44287109 C-35.17975593 115.69959642 -34.76764112 113.95610762 -34.35644531 112.21240234 C-33.59912945 109.00301849 -32.83573078 105.79519541 -32.06762695 102.58837891 C-31.00646302 98.13388742 -30.010986 93.66568295 -29.03027344 89.19287109 C-23.24210123 90.723936 -18.73764721 93.71335629 -13.78027344 96.94287109 C-12.09199676 98.02702305 -10.40319919 99.11036429 -8.71386719 100.19287109 C-7.90804199 100.71107422 -7.1022168 101.22927734 -6.27197266 101.76318359 C-2.2457141 104.3310087 1.84993805 106.77818785 5.96972656 109.19287109 C5.65826184 111.08887479 5.34550939 112.98466696 5.03222656 114.88037109 C4.85820313 115.93611328 4.68417969 116.99185547 4.50488281 118.07958984 C4.03859643 120.79221937 3.50951933 123.49390727 2.96972656 126.19287109 C12.20972656 126.19287109 21.44972656 126.19287109 30.96972656 126.19287109 C31.29972656 123.22287109 31.62972656 120.25287109 31.96972656 117.19287109 C32.29959226 115.16792912 32.64951352 113.14599311 33.03222656 111.13037109 C33.20882812 110.19064453 33.38542969 109.25091797 33.56738281 108.28271484 C33.70015625 107.59306641 33.83292969 106.90341797 33.96972656 106.19287109 C33.45289307 105.83161133 32.93605957 105.47035156 32.40356445 105.09814453 C22.73624389 98.33945249 13.07633311 91.57087216 3.44482422 84.76123047 C-5.35868396 78.54111166 -14.19563933 72.36865839 -23.03027344 66.19287109 C-22.46869498 58.36835378 -21.03641587 50.8713653 -19.34277344 43.22021484 C-19.08020752 42.01595352 -18.8176416 40.8116922 -18.54711914 39.57093811 C-17.99505972 37.0449894 -17.44024765 34.51964087 -16.8828125 31.99487305 C-16.31104754 29.40310111 -15.74181321 26.81096545 -15.17773438 24.2175293 C-14.36198288 20.46748279 -13.54093116 16.71864187 -12.71777344 12.97021484 C-12.46358643 11.80368881 -12.20939941 10.63716278 -11.94750977 9.43528748 C-11.71056396 8.36649857 -11.47361816 7.29770966 -11.22949219 6.1965332 C-11.02155029 5.25184677 -10.8136084 4.30716034 -10.59936523 3.33384705 C-9.28147038 -1.62419523 -4.29060636 0.02019817 0 0 Z " fill="#0D0D0D" transform="translate(110.0302734375,19.80712890625)"/>
<path d="M0 0 C0.66 0.33 1.32 0.66 2 1 C2.67377673 7.17628672 1.77152927 10.7267079 -1.95703125 15.7265625 C-13.29577161 28.34443418 -31.97988942 37.14942069 -48 42 C-49.85776765 38.86501708 -50.20140476 36.62528568 -50 33 C-46.21334156 31.14108803 -42.42303238 29.28990824 -38.62915039 27.44580078 C-37.33905612 26.81738066 -36.04998316 26.18685936 -34.76196289 25.55419922 C-32.91036252 24.6451669 -31.05522033 23.7437552 -29.19921875 22.84375 C-27.52605591 22.02680664 -27.52605591 22.02680664 -25.8190918 21.19335938 C-23 20 -23 20 -20 20 C-20 19.34 -20 18.68 -20 18 C-18.31874988 16.80457522 -16.57751917 15.69287157 -14.8125 14.625 C-7.10689845 10.11660846 -7.10689845 10.11660846 -1.6875 3.25 C-1.130625 2.1775 -0.57375 1.105 0 0 Z " fill="#2EF2FA" transform="translate(206,106)"/>
<path d="M0 0 C0.66 0.33 1.32 0.66 2 1 C3.03248382 12.47204244 3.03248382 12.47204244 -0.5 17.3125 C-1.6287912 18.57653807 -2.79647706 19.80689718 -4 21 C-4.53367188 21.56976563 -5.06734375 22.13953125 -5.6171875 22.7265625 C-15.19330949 32.04732124 -28.9167173 37.7239091 -41 43 C-42.17219543 42.21654285 -43.33763668 41.42297164 -44.5 40.625 C-45.1496875 40.18414062 -45.799375 39.74328125 -46.46875 39.2890625 C-46.9740625 38.86367187 -47.479375 38.43828125 -48 38 C-48 37.34 -48 36.68 -48 36 C-47.23969482 35.64808594 -46.47938965 35.29617187 -45.69604492 34.93359375 C-42.81574864 33.59349386 -39.94071816 32.24279002 -37.06860352 30.88525391 C-35.23762416 30.0235886 -33.40110263 29.17373103 -31.56445312 28.32421875 C-24.59757079 25.02111922 -18.39718316 21.42663554 -12.2980957 16.69921875 C-10 15 -10 15 -7.76245117 13.8828125 C-5.38093906 12.68991213 -5.03701468 11.41970091 -4 9 C-3.484375 8.175 -2.96875 7.35 -2.4375 6.5 C-1.14826053 4.2578444 -0.46652072 2.51921187 0 0 Z " fill="#70F6FC" transform="translate(209,113)"/>
<path d="M0 0 C0.804375 0.5775 1.60875 1.155 2.4375 1.75 C3.4275 2.41 4.4175 3.07 5.4375 3.75 C5.7675 2.76 6.0975 1.77 6.4375 0.75 C8.4175 0.75 10.3975 0.75 12.4375 0.75 C11.47070312 0.99363281 11.47070312 0.99363281 10.484375 1.2421875 C8.0038746 2.70214403 8.0038746 2.70214403 7.828125 6.4453125 C7.76164708 7.92112237 7.71556121 9.39796017 7.6875 10.875 C7.64302734 12.00615234 7.64302734 12.00615234 7.59765625 13.16015625 C7.52692068 15.02285953 7.47995017 16.88643755 7.4375 18.75 C3.95878379 19.90957207 3.09530355 19.52456651 -0.25 18.3125 C-1.46236328 17.88130859 -1.46236328 17.88130859 -2.69921875 17.44140625 C-3.31410156 17.21324219 -3.92898437 16.98507813 -4.5625 16.75 C-4.5625 17.41 -4.5625 18.07 -4.5625 18.75 C-6.2125 18.75 -7.8625 18.75 -9.5625 18.75 C-9.11720625 14.07441566 -8.59774486 9.43383481 -7.75 4.8125 C-7.61980469 4.08160156 -7.48960937 3.35070312 -7.35546875 2.59765625 C-6.5625 0.75 -6.5625 0.75 -4.6484375 -0.58203125 C-2.5625 -1.25 -2.5625 -1.25 0 0 Z " fill="#F5F6F6" transform="translate(201.5625,190.25)"/>
<path d="M0 0 C2 1.5625 2 1.5625 3 4 C3.32673822 8.41096596 3.19200493 12.72864901 2 17 C-0.0625 18.375 -0.0625 18.375 -2 19 C-2 18.34 -2 17.68 -2 17 C-3.051875 17.268125 -4.10375 17.53625 -5.1875 17.8125 C-9 18 -9 18 -12 16.125 C-14.41685417 12.34866537 -14.48375768 10.41231292 -13.69921875 6.09375 C-13 4 -13 4 -10.9375 1.4375 C-6.84932196 -0.56309776 -4.5306443 -0.58459927 0 0 Z " fill="#F5F6F7" transform="translate(171,191)"/>
<path d="M0 0 C2.5 0.9375 2.5 0.9375 4 3 C4.82239954 7.44609754 4.5177234 10.91953377 2.5625 15 C-1.01585324 17.79286106 -4.51568264 18.1273437 -9 18 C-10 17 -10 17 -10.09765625 13.40234375 C-10.0909822 11.91403133 -10.07902183 10.42573568 -10.0625 8.9375 C-10.05798828 8.17888672 -10.05347656 7.42027344 -10.04882812 6.63867188 C-10.0370068 4.75908129 -10.01907078 2.87953101 -10 1 C-6.7985402 -0.6007299 -3.48080635 -0.35083226 0 0 Z " fill="#02EBF5" transform="translate(74,191)"/>
<path d="M0 0 C1.6875 2.5625 1.6875 2.5625 3 5 C3.33 3.35 3.66 1.7 4 0 C5.65 0 7.3 0 9 0 C9 5.28 9 10.56 9 16 C7.68 16.33 6.36 16.66 5 17 C3.35 15.02 1.7 13.04 0 11 C-0.33 12.98 -0.66 14.96 -1 17 C-2.65 17 -4.3 17 -6 17 C-6 11.39 -6 5.78 -6 0 C-3 -1 -3 -1 0 0 Z " fill="#00F3FC" transform="translate(124,192)"/>
<path d="M0 0 C1.6875 2.5625 1.6875 2.5625 3 5 C3.33 3.35 3.66 1.7 4 0 C5.65 0 7.3 0 9 0 C9 5.28 9 10.56 9 16 C7.68 16.33 6.36 16.66 5 17 C3.35 15.02 1.7 13.04 0 11 C-0.33 12.98 -0.66 14.96 -1 17 C-2.65 17 -4.3 17 -6 17 C-6 11.39 -6 5.78 -6 0 C-3 -1 -3 -1 0 0 Z " fill="#00F3FC" transform="translate(54,192)"/>
<path d="M0 0 C10.4101657 -0.36741761 10.4101657 -0.36741761 12.875 1.16796875 C14.47845895 3.77915711 14.0870748 5.49713486 13.6875 8.5 C13.56761719 9.4590625 13.44773437 10.418125 13.32421875 11.40625 C13.21722656 12.2621875 13.11023438 13.118125 13 14 C13 14.99 13 15.98 13 17 C11.25 17.75 11.25 17.75 9 18 C6.75 16.0625 6.75 16.0625 5 14 C5 14.99 5 15.98 5 17 C3.35 17 1.7 17 0 17 C0 11.39 0 5.78 0 0 Z " fill="#04E5EF" transform="translate(96,192)"/>
<path d="M0 0 C0 2.97 0 5.94 0 9 C-2.58090767 10.31746333 -5.16450458 11.62909617 -7.75 12.9375 C-8.47960937 13.31068359 -9.20921875 13.68386719 -9.9609375 14.06835938 C-10.66992188 14.42607422 -11.37890625 14.78378906 -12.109375 15.15234375 C-13.08342285 15.6472229 -13.08342285 15.6472229 -14.07714844 16.15209961 C-16.03293079 17.01452116 -17.91540694 17.54374179 -20 18 C-21.87620422 14.83390538 -22.09662822 12.64167599 -22 9 C-18.90034597 7.4905412 -15.79458597 5.99409333 -12.6875 4.5 C-11.80642578 4.07074219 -10.92535156 3.64148438 -10.01757812 3.19921875 C-9.17001953 2.79316406 -8.32246094 2.38710937 -7.44921875 1.96875 C-6.27879028 1.40317383 -6.27879028 1.40317383 -5.0847168 0.82617188 C-3 0 -3 0 0 0 Z " fill="#ACF5F8" transform="translate(178,130)"/>
<path d="M0 0 C0.625 1.875 0.625 1.875 1 4 C-1.5654594 6.5654594 -3.47686668 6.54046087 -7 7 C-7 8.98 -7 10.96 -7 13 C-6.01 12.67 -5.02 12.34 -4 12 C-4.66 11.67 -5.32 11.34 -6 11 C-6 9.68 -6 8.36 -6 7 C-3.36 7 -0.72 7 2 7 C2.3125 10.25 2.3125 10.25 2 14 C-0.59026269 16.97118368 -2.16059685 17.88008526 -6.0625 18.4375 C-9.37790379 17.94371646 -10.60419316 17.29977239 -13 15 C-13.83407299 11.60618578 -13.61647036 8.42604768 -13 5 C-9.41387839 -0.60331501 -6.13079617 -0.519559 0 0 Z " fill="#01F0FA" transform="translate(148,191)"/>
<path d="M0 0 C1.65 0 3.3 0 5 0 C5.08160748 1.89510699 5.13946459 3.79124504 5.1875 5.6875 C5.22230469 6.74324219 5.25710937 7.79898438 5.29296875 8.88671875 C4.96063055 12.41836599 4.11678496 14.18255429 2 17 C-1.22143276 19.14762184 -2.2595467 19.561068 -6 19 C-9.56314785 15.30959687 -10.12714438 11.79011723 -10.0625 6.8125 C-10.05347656 5.91144531 -10.04445312 5.01039063 -10.03515625 4.08203125 C-10.02355469 3.39496094 -10.01195312 2.70789063 -10 2 C-8.02 1.67 -6.04 1.34 -4 1 C-3.67 4.63 -3.34 8.26 -3 12 C-2.34 11.67 -1.68 11.34 -1 11 C-0.5316735 8.41394668 -0.5316735 8.41394668 -0.375 5.4375 C-0.30023438 4.42558594 -0.22546875 3.41367188 -0.1484375 2.37109375 C-0.09945312 1.58863281 -0.05046875 0.80617187 0 0 Z " fill="#F0F1F3" transform="translate(185,190)"/>
<path d="M0 0 C1.51400391 0.01740234 1.51400391 0.01740234 3.05859375 0.03515625 C4.07050781 0.04417969 5.08242188 0.05320313 6.125 0.0625 C7.29869141 0.07990234 7.29869141 0.07990234 8.49609375 0.09765625 C8.49609375 1.41765625 8.49609375 2.73765625 8.49609375 4.09765625 C7.50609375 4.59265625 7.50609375 4.59265625 6.49609375 5.09765625 C7.15609375 5.42765625 7.81609375 5.75765625 8.49609375 6.09765625 C8.49609375 9.72765625 8.49609375 13.35765625 8.49609375 17.09765625 C4.53609375 17.09765625 0.57609375 17.09765625 -3.50390625 17.09765625 C-3.53075304 14.45175611 -3.55066982 11.80612529 -3.56640625 9.16015625 C-3.57478516 8.40541016 -3.58316406 7.65066406 -3.59179688 6.87304688 C-3.60043066 4.94771312 -3.55614958 3.02230044 -3.50390625 1.09765625 C-2.50390625 0.09765625 -2.50390625 0.09765625 0 0 Z " fill="#02E9F3" transform="translate(37.50390625,191.90234375)"/>
<path d="M0 0 C1.32 0 2.64 0 4 0 C4.33 3.63 4.66 7.26 5 11 C5.66 11 6.32 11 7 11 C7.33 7.37 7.66 3.74 8 0 C9.65 0 11.3 0 13 0 C13.05423638 1.91635217 13.09289963 3.83314925 13.125 5.75 C13.14820312 6.81734375 13.17140625 7.8846875 13.1953125 8.984375 C13.00122458 11.98109254 12.67232902 13.54134409 11 16 C8 18 8 18 4.4375 17.8125 C1 17 1 17 -1 14 C-1.23046875 10.8984375 -1.23046875 10.8984375 -1.1875 7.375 C-1.18105469 6.20710937 -1.17460938 5.03921875 -1.16796875 3.8359375 C-1 1 -1 1 0 0 Z " fill="#02EEF8" transform="translate(81,191)"/>
<path d="M0 0 C0 2.97 0 5.94 0 9 C-6.93 12.465 -6.93 12.465 -14 16 C-19.46875 12.2890625 -19.46875 12.2890625 -21 11 C-21 10.34 -21 9.68 -21 9 C-17.87797994 7.49373883 -14.75191601 5.99606757 -11.625 4.5 C-10.73554688 4.07074219 -9.84609375 3.64148438 -8.9296875 3.19921875 C-8.07890625 2.79316406 -7.228125 2.38710937 -6.3515625 1.96875 C-5.56604004 1.59169922 -4.78051758 1.21464844 -3.97119141 0.82617188 C-2 0 -2 0 0 0 Z " fill="#C0F4F6" transform="translate(182,140)"/>
<path d="M0 0 C0.55675609 3.47800715 0.76348726 6.54367252 0 10 C-3.83937028 14.05266863 -8.86752382 16.03087948 -14 18 C-14.33 14.7 -14.66 11.4 -15 8 C-9.375 5 -9.375 5 -6 5 C-6 4.34 -6 3.68 -6 3 C-1.5 0 -1.5 0 0 0 Z " fill="#59F4FA" transform="translate(192,121)"/>
<path d="M0 0 C0.66 0.33 1.32 0.66 2 1 C3.03328695 12.48096606 3.03328695 12.48096606 -0.75 17.5 C-1.80401288 18.69322213 -2.88521102 19.86335241 -4 21 C-4.7425 21.825 -5.485 22.65 -6.25 23.5 C-8 25 -8 25 -10 25 C-10.24954005 23.56589632 -10.47392642 22.12739928 -10.6875 20.6875 C-10.87892578 19.48673828 -10.87892578 19.48673828 -11.07421875 18.26171875 C-11 16 -11 16 -9.64453125 14.20703125 C-8 13 -8 13 -6 13 C-5.731875 12.443125 -5.46375 11.88625 -5.1875 11.3125 C-4 9 -4 9 -2.4375 6.5 C-1.14826053 4.2578444 -0.46652072 2.51921187 0 0 Z " fill="#10ECF5" transform="translate(209,113)"/>
<path d="M0 0 C1.98 0.99 3.96 1.98 6 3 C6.33 2.01 6.66 1.02 7 0 C8.65 0.33 10.3 0.66 12 1 C10.51292957 4.94842838 8.72258983 8.61684906 6.6875 12.3125 C6.11386719 13.38113281 5.54023438 14.44976562 4.94921875 15.55078125 C3 18 3 18 0.26953125 18.35546875 C-0.47941406 18.23816406 -1.22835937 18.12085938 -2 18 C-1.690625 17.0925 -1.38125 16.185 -1.0625 15.25 C-0.711875 14.1775 -0.36125 13.105 0 12 C0.28875 11.319375 0.5775 10.63875 0.875 9.9375 C1.22246851 7.70502628 1.22246851 7.70502628 -0.9375 5.25 C-1.618125 4.5075 -2.29875 3.765 -3 3 C-2.01 2.01 -1.02 1.02 0 0 Z " fill="#F9FAFA" transform="translate(248,191)"/>
<path d="M0 0 C0 1.65 0 3.3 0 5 C-1.65 5 -3.3 5 -5 5 C-5 9.29 -5 13.58 -5 18 C-6.65 18 -8.3 18 -10 18 C-10 14.04 -10 10.08 -10 6 C-11.32 6 -12.64 6 -14 6 C-14 4.35 -14 2.7 -14 1 C-9.27616037 0.34843591 -4.78025483 -0.11950637 0 0 Z " fill="#FBFCFC" transform="translate(243,191)"/>
<path d="M0 0 C6.90229497 2.00531156 12.98270473 4.88268185 19.25 8.375 C20.12140625 8.84421875 20.9928125 9.3134375 21.890625 9.796875 C26.6278635 12.41102186 30.41875943 14.93040844 34 19 C33.505 20.485 33.505 20.485 33 22 C32.41879395 21.56937256 31.83758789 21.13874512 31.23876953 20.69506836 C24.73699805 15.99692745 18.02192696 12.18597378 10.875 8.5625 C9.823125 8.02173828 8.77125 7.48097656 7.6875 6.92382812 C5.12827076 5.60931493 2.56584852 4.30153131 0 3 C0 2.01 0 1.02 0 0 Z " fill="#485E72" transform="translate(174,173)"/>
<path d="M0 0 C1.98 0 3.96 0 6 0 C6.02684312 2.81256281 6.04676188 5.62487241 6.0625 8.4375 C6.07087891 9.23994141 6.07925781 10.04238281 6.08789062 10.86914062 C6.0965143 12.91295221 6.0522815 14.95683902 6 17 C5.67 17.33 5.34 17.66 5 18 C3.35 18 1.7 18 0 18 C0 12.06 0 6.12 0 0 Z " fill="#04E4EE" transform="translate(111,191)"/>
<path d="M0 0 C0 5.94 0 11.88 0 18 C-1.65 18 -3.3 18 -5 18 C-5 12.39 -5 6.78 -5 1 C-3 0 -3 0 0 0 Z " fill="#F9F9FA" transform="translate(227,191)"/>
<path d="M0 0 C0.33 2.97 0.66 5.94 1 9 C-1.8125 10.5625 -1.8125 10.5625 -5 12 C-5.99 11.67 -6.98 11.34 -8 11 C-8.33 8.36 -8.66 5.72 -9 3 C-3.375 0 -3.375 0 0 0 Z " fill="#D9F9FA" transform="translate(165,136)"/>
<path d="M0 0 C0.33 2.97 0.66 5.94 1 9 C-1.97 10.65 -4.94 12.3 -8 14 C-8.52502625 7.34966748 -8.52502625 7.34966748 -8 4 C-3.61904762 0 -3.61904762 0 0 0 Z " fill="#5AF5FB" transform="translate(199,130)"/>
<path d="M0 0 C0.66 0.33 1.32 0.66 2 1 C-2.29588784 13.67286913 -12.19481036 21.09740518 -24 27 C-24.66 27 -25.32 27 -26 27 C-24.62643948 22.87931844 -21.79368347 21.71094777 -18.25 19.5625 C-9.64502656 14.4589062 -9.64502656 14.4589062 -3.25 6.9375 C-2.84265625 6.26589844 -2.4353125 5.59429687 -2.015625 4.90234375 C-0.86543651 2.87603434 -0.86543651 2.87603434 0 0 Z " fill="#528794" transform="translate(208,112)"/>
<path d="M0 0 C0.66 0.33 1.32 0.66 2 1 C2.54848998 7.1430878 1.67398815 10.38457942 -1.7109375 15.53125 C-2.13632813 16.0159375 -2.56171875 16.500625 -3 17 C-3.66 17 -4.32 17 -5 17 C-5.74521523 9.84593383 -4.34707015 5.69776694 0 0 Z " fill="#19F0F9" transform="translate(206,106)"/>
<path d="M0 0 C0.33 0.99 0.66 1.98 1 3 C0.5153125 3.391875 0.030625 3.78375 -0.46875 4.1875 C-2.447014 6.52911861 -2.39181237 7.97074644 -2.5 11 C-2.66306156 15.56572379 -2.66306156 15.56572379 -4.40625 17.8125 C-6 19 -6 19 -8 19 C-8.24954005 17.56589632 -8.47392642 16.12739928 -8.6875 14.6875 C-8.81511719 13.88699219 -8.94273437 13.08648437 -9.07421875 12.26171875 C-9 10 -9 10 -7.64453125 8.20703125 C-6 7 -6 7 -4 7 C-3.71125 6.401875 -3.4225 5.80375 -3.125 5.1875 C-2 3 -2 3 0 0 Z " fill="#30F1F9" transform="translate(207,119)"/>
<path d="M0 0 C0.33 0.99 0.66 1.98 1 3 C-2.12202006 4.50626117 -5.24808399 6.00393243 -8.375 7.5 C-9.26445312 7.92925781 -10.15390625 8.35851562 -11.0703125 8.80078125 C-11.92109375 9.20683594 -12.771875 9.61289063 -13.6484375 10.03125 C-14.43395996 10.40830078 -15.21948242 10.78535156 -16.02880859 11.17382812 C-18 12 -18 12 -20 12 C-20.33 12.66 -20.66 13.32 -21 14 C-21 12.68 -21 11.36 -21 10 C-14.07 6.7 -7.14 3.4 0 0 Z " fill="#171E1E" transform="translate(181,137)"/>
<path d="M0 0 C1.99954746 -0.04254356 4.00041636 -0.04080783 6 0 C7 1 7 1 7.09765625 4.81640625 C7.09098089 6.39846682 7.07901875 7.98051159 7.0625 9.5625 C7.05798828 10.36880859 7.05347656 11.17511719 7.04882812 12.00585938 C7.03700518 14.00393756 7.01906914 16.00197783 7 18 C6.34 18 5.68 18 5 18 C5 16.35 5 14.7 5 13 C3.02 13 1.04 13 -1 13 C-1 12.67 -1 12.34 -1 12 C0.98 12 2.96 12 5 12 C5 10.35 5 8.7 5 7 C3.02 7 1.04 7 -1 7 C2.75 5 2.75 5 5 5 C5 3.68 5 2.36 5 1 C3.35 1 1.7 1 0 1 C0 0.67 0 0.34 0 0 Z " fill="#1F6B81" transform="translate(41,191)"/>
<path d="M0 0 C0 3.3 0 6.6 0 10 C-1.65 10.66 -3.3 11.32 -5 12 C-5.33 8.7 -5.66 5.4 -6 2 C-2 0 -2 0 0 0 Z " fill="#82F4F8" transform="translate(183,127)"/>
<path d="M0 0 C1.65 0.99 3.3 1.98 5 3 C5.33 2.01 5.66 1.02 6 0 C7.98 0 9.96 0 12 0 C11.36578125 0.19335938 10.7315625 0.38671875 10.078125 0.5859375 C7.67611298 1.8911392 7.67611298 1.8911392 7.171875 5.0390625 C6.96304688 6.81410156 6.96304688 6.81410156 6.75 8.625 C6.60046875 9.81351563 6.4509375 11.00203125 6.296875 12.2265625 C6.19890625 13.14179688 6.1009375 14.05703125 6 15 C4.19969878 12.29954818 3.06622934 9.93322119 1.875 6.9375 C1.52179688 6.05964844 1.16859375 5.18179688 0.8046875 4.27734375 C0 2 0 2 0 0 Z " fill="#D6D7D9" transform="translate(202,191)"/>
<path d="M0 0 C0 2.97 0 5.94 0 9 C-6.875 5.375 -6.875 5.375 -8 2 C-4.91190305 0.23537317 -3.76687864 0 0 0 Z " fill="#D6F3F4" transform="translate(169,147)"/>
<path d="M0 0 C0 2.97 0 5.94 0 9 C-1.98 9.99 -1.98 9.99 -4 11 C-6.04698414 8.95301586 -5.70045693 4.69588759 -6 2 C-2.25 0 -2.25 0 0 0 Z " fill="#98F3F7" transform="translate(182,140)"/>
<path d="M0 0 C1.32 0.33 2.64 0.66 4 1 C4.08090971 2.62418745 4.13914995 4.24951745 4.1875 5.875 C4.22230469 6.77992188 4.25710937 7.68484375 4.29296875 8.6171875 C4.19628906 9.40351563 4.09960938 10.18984375 4 11 C3.01 11.66 2.02 12.32 1 13 C0 12 0 12 -0.09765625 9.27734375 C-0.08605469 8.17519531 -0.07445312 7.07304687 -0.0625 5.9375 C-0.05347656 4.83277344 -0.04445312 3.72804687 -0.03515625 2.58984375 C-0.02355469 1.73519531 -0.01195312 0.88054687 0 0 Z " fill="#324C64" transform="translate(181,190)"/>
<path d="M0 0 C0.33 2.97 0.66 5.94 1 9 C-0.98 9.99 -0.98 9.99 -3 11 C-4.58272601 9.41727399 -4.34735747 7.61965997 -4.5625 5.4375 C-4.64628906 4.61121094 -4.73007813 3.78492188 -4.81640625 2.93359375 C-4.87699219 2.29550781 -4.93757812 1.65742188 -5 1 C-2 0 -2 0 0 0 Z " fill="#C0F3F5" transform="translate(169,134)"/>
<path d="M0 0 C0.66 0 1.32 0 2 0 C2.33 2.97 2.66 5.94 3 9 C0.525 10.485 0.525 10.485 -2 12 C-2.05395478 10.37536158 -2.09277195 8.75021459 -2.125 7.125 C-2.14820313 6.22007813 -2.17140625 5.31515625 -2.1953125 4.3828125 C-2 2 -2 2 0 0 Z " fill="#43F4FB" transform="translate(194,119)"/>
<path d="M0 0 C0.33 2.97 0.66 5.94 1 9 C-0.98 9.99 -0.98 9.99 -3 11 C-5.04698414 8.95301586 -4.70045693 4.69588759 -5 2 C-2 0 -2 0 0 0 Z " fill="#47F4FB" transform="translate(199,130)"/>
<path d="M0 0 C0 2.97 0 5.94 0 9 C-1.98 9.99 -1.98 9.99 -4 11 C-4.33 7.7 -4.66 4.4 -5 1 C-3 0 -3 0 0 0 Z " fill="#98F5F9" transform="translate(178,130)"/>
<path d="M0 0 C0.33 2.64 0.66 5.28 1 8 C-0.98 8.99 -0.98 8.99 -3 10 C-5.04698414 7.95301586 -4.70045693 3.69588759 -5 1 C-3 0 -3 0 0 0 Z " fill="#ADF4F6" transform="translate(177,143)"/>
<path d="M0 0 C0 2.97 0 5.94 0 9 C-1.98 9.99 -1.98 9.99 -4 11 C-4 7.7 -4 4.4 -4 1 C-2 0 -2 0 0 0 Z " fill="#86F8FC" transform="translate(186,138)"/>
<path d="M0 0 C0 2.97 0 5.94 0 9 C-1.98 9.99 -1.98 9.99 -4 11 C-4 7.7 -4 4.4 -4 1 C-1 0 -1 0 0 0 Z " fill="#6EF7FC" transform="translate(187,125)"/>
<path d="M0 0 C0.22893297 3.03336186 0.36475845 5.97465051 0 9 C-2 11.0625 -2 11.0625 -4 12 C-4.08131463 10.56344146 -4.13933559 9.1255517 -4.1875 7.6875 C-4.22230469 6.88699219 -4.25710937 6.08648437 -4.29296875 5.26171875 C-3.98428663 2.87869278 -2.85980321 0 0 0 Z " fill="#1BF5FD" transform="translate(208,122)"/>
<path d="M0 0 C0 3.3 0 6.6 0 10 C-0.99 9.67 -1.98 9.34 -3 9 C-3.33 6.36 -3.66 3.72 -4 1 C-2 0 -2 0 0 0 Z " fill="#EAF6F6" transform="translate(160,138)"/>
<path d="M0 0 C1.46067199 0.45082469 2.91848032 0.91093537 4.375 1.375 C5.18710938 1.63023437 5.99921875 1.88546875 6.8359375 2.1484375 C9 3 9 3 11 5 C7.44706507 6.14947895 6.20023331 6.0868937 2.6875 4.5625 C1.800625 4.046875 0.91375 3.53125 0 3 C0 2.01 0 1.02 0 0 Z " fill="#41596B" transform="translate(174,173)"/>
<path d="M0 0 C0.66 0.33 1.32 0.66 2 1 C2 3.64 2 6.28 2 9 C1.01 9.33 0.02 9.66 -1 10 C-1.02689216 8.52093108 -1.04634621 7.04172517 -1.0625 5.5625 C-1.07410156 4.73878906 -1.08570313 3.91507812 -1.09765625 3.06640625 C-1 1 -1 1 0 0 Z " fill="#18E0E9" transform="translate(206,106)"/>
<path d="M0 0 C1.32 0.33 2.64 0.66 4 1 C4 2.65 4 4.3 4 6 C2.68 6.33 1.36 6.66 0 7 C0 4.69 0 2.38 0 0 Z " fill="#275871" transform="translate(69,196)"/>
<path d="M0 0 C1.32 0.33 2.64 0.66 4 1 C3.67 2.32 3.34 3.64 3 5 C1.35 4.67 -0.3 4.34 -2 4 C-1.34 2.68 -0.68 1.36 0 0 Z " fill="#08D9E5" transform="translate(113,185)"/>
<path d="M0 0 C0.33 0 0.66 0 1 0 C1 3.63 1 7.26 1 11 C0.01 10.67 -0.98 10.34 -2 10 C-1.46274105 6.62294375 -0.88935377 3.303314 0 0 Z " fill="#29546D" transform="translate(110,196)"/>
<path d="M0 0 C0.33 0.66 0.66 1.32 1 2 C0.67 2.66 0.34 3.32 0 4 C-2.91517292 2.92598892 -4.77810176 2.22189824 -7 0 C-4.30234372 -1.34882814 -2.84835666 -0.80338265 0 0 Z " fill="#55697B" transform="translate(200,185)"/>
<path d="M0 0 C1.32 0 2.64 0 4 0 C3 2 2 4 1 6 C0.34 6 -0.32 6 -1 6 C-1.042721 4.33388095 -1.04063832 2.66617115 -1 1 C-0.67 0.67 -0.34 0.34 0 0 Z " fill="#3E576E" transform="translate(164,197)"/>
<path d="M0 0 C1.32 0 2.64 0 4 0 C3.67 1.32 3.34 2.64 3 4 C1.68 3.67 0.36 3.34 -1 3 C-0.67 2.01 -0.34 1.02 0 0 Z " fill="#F6F7F8" transform="translate(223,186)"/>
</svg>
