<svg xmlns="http://www.w3.org/2000/svg" width="150" height="101.25" viewBox="0 0 150 101.25"><g transform="translate(19405 2323)"><rect width="150" height="101.25" transform="translate(-19405 -2323)" fill="#fff" opacity="0"/><g transform="translate(-19391.875 -2308.001)"><path d="M464.1,199.423A20.512,20.512,0,1,1,444,224.077a1.25,1.25,0,0,1,.5-1.272,92.106,92.106,0,0,0,7.925-19.362,1.25,1.25,0,0,1,.525-.716,20.664,20.664,0,0,1,3.59-1.85,1.25,1.25,0,0,1,1.684.893l3.052,13.868.026-.017a5.093,5.093,0,0,1,2.791-.829,4.961,4.961,0,0,1,.747.057l-3.04-13.868a1.25,1.25,0,0,1,1.152-1.517C463.322,199.444,463.7,199.423,464.1,199.423Zm0,38.528a18.013,18.013,0,1,0,.464-36.024l3.25,14.773a1.25,1.25,0,0,1-2.025,1.225,2.6,2.6,0,0,0-4.072.893,1.25,1.25,0,0,1-2.352-.264L456.124,203.8q-.726.358-1.407.774A94.127,94.127,0,0,1,449.46,218.6c-1.367,2.928-2.468,4.909-2.862,5.6a18,18,0,0,0,17.5,13.751Z" transform="translate(-361.347 -164.2)" fill="#da3832"/><path d="M461.412,203.9h.074a12.49,12.49,0,1,1-6.676,1.456,1.25,1.25,0,0,1,1.814.832l1.3,5.9.026-.017a5.093,5.093,0,0,1,2.791-.829,4.961,4.961,0,0,1,.747.057l-1.294-5.881a1.25,1.25,0,0,1,1.221-1.519Zm-.673,22.509a10.015,10.015,0,0,0,2.281-19.768l1.433,6.509a1.25,1.25,0,0,1-2.025,1.225,2.6,2.6,0,0,0-4.072.893A1.25,1.25,0,0,1,456,215l-1.434-6.515a10.021,10.021,0,0,0,6.169,17.919Z" transform="translate(-357.982 -160.646)" fill="#da3832"/><path d="M417.76,240.451a20.512,20.512,0,1,1,20.094-24.66,1.25,1.25,0,0,1-1.224,1.5H422.168a5.131,5.131,0,0,1,0,5.288H436.63a1.25,1.25,0,0,1,1.224,1.5,20.494,20.494,0,0,1-20.094,16.37Zm0-38.528a18.012,18.012,0,1,0,17.267,23.157H417.76a1.251,1.251,0,0,1,0-2.5,2.643,2.643,0,0,0,0-5.286,1.25,1.25,0,1,1,0-2.5h17.267a17.994,17.994,0,0,0-17.267-12.869Z" transform="translate(-398.496 -164.2)" fill="#da3832"/><path d="M445.542,224.354H423.615a1.25,1.25,0,0,1-1.25-1.25v-7.788a1.25,1.25,0,0,1,1.1-1.241,15.6,15.6,0,0,0,5.662-2.123,12.012,12.012,0,0,0,5.737-10.407,1.25,1.25,0,0,1,1.249-1.208h23.771a1.25,1.25,0,0,1,1.04,1.943L446.582,223.8A1.25,1.25,0,0,1,445.542,224.354Zm-20.677-2.5h20.008l12.678-19.018H437.287a14.37,14.37,0,0,1-6.92,11.29,18.388,18.388,0,0,1-5.5,2.23Z" transform="translate(-378.531 -163.475)"/><path d="M435.207,218.867h0a8.927,8.927,0,0,1-7.225-3.669,1.25,1.25,0,0,1,.126-1.621l10.739-10.738a1.25,1.25,0,0,1,1.622-.125,8.936,8.936,0,0,1-5.261,16.153Zm-4.512-4.341a6.435,6.435,0,0,0,9.1-9.1Z" transform="translate(-374.258 -161.776)"/><path d="M2.97-1.25A4.22,4.22,0,1,1-1.25,2.97,4.22,4.22,0,0,1,2.97-1.25Zm0,5.941A1.72,1.72,0,1,0,1.25,2.97,1.72,1.72,0,0,0,2.97,4.691Z" transform="translate(47.34 34.411)"/><path d="M15.062,1.25H0A1.25,1.25,0,0,1-1.25,0,1.25,1.25,0,0,1,0-1.25H15.062A1.25,1.25,0,0,1,16.312,0,1.25,1.25,0,0,1,15.062,1.25Z" transform="translate(63.223 32.58)"/><path d="M15.062,1.25H0A1.25,1.25,0,0,1-1.25,0,1.25,1.25,0,0,1,0-1.25H15.062A1.25,1.25,0,0,1,16.312,0,1.25,1.25,0,0,1,15.062,1.25Z" transform="translate(63.223 32.58)"/><path d="M11.219,1.25H0A1.25,1.25,0,0,1-1.25,0,1.25,1.25,0,0,1,0-1.25H11.219A1.25,1.25,0,0,1,12.469,0,1.25,1.25,0,0,1,11.219,1.25Z" transform="translate(71.821 27.822)"/><path d="M11.219,1.25H0A1.25,1.25,0,0,1-1.25,0,1.25,1.25,0,0,1,0-1.25H11.219A1.25,1.25,0,0,1,12.469,0,1.25,1.25,0,0,1,11.219,1.25Z" transform="translate(71.821 27.822)"/><path d="M430.541,200H424.9a1.25,1.25,0,0,1-.842-.326l-7.168-6.531a1.25,1.25,0,1,1,1.684-1.848l6.811,6.2h5.152a1.25,1.25,0,0,1,0,2.5Z" transform="translate(-383.202 -170.924)"/><path d="M3.893-1.25A5.143,5.143,0,1,1-1.25,3.893,5.143,5.143,0,0,1,3.893-1.25Zm0,7.786A2.643,2.643,0,1,0,1.25,3.893,2.643,2.643,0,0,0,3.893,6.536Z" transform="translate(98.862 51.842)"/><path d="M472.865,205.579h0l-40.053-.005a1.25,1.25,0,0,1-1.049-1.93,15.958,15.958,0,0,1,5.121-4.417,28.043,28.043,0,0,1,7.1-2.9,42.617,42.617,0,0,1,10.849-1.3h3.748a54.575,54.575,0,0,0-8.707-10.7,1.25,1.25,0,0,1,.158-1.938l4.508-3.075a1.25,1.25,0,0,1,1.319-.056,49.27,49.27,0,0,1,8.988,6.874A35.627,35.627,0,0,1,471.111,194a21.361,21.361,0,0,1,3,10.314,1.25,1.25,0,0,1-1.25,1.268Zm-37.127-2.505h35.808a19.487,19.487,0,0,0-2.607-7.842,33.144,33.144,0,0,0-5.831-7.3,48.82,48.82,0,0,0-7.824-6.1L452.7,183.6a57.036,57.036,0,0,1,9.165,12.066,1.25,1.25,0,0,1-1.087,1.867h-5.944a40.28,40.28,0,0,0-10.074,1.179,25.8,25.8,0,0,0-6.441,2.574,18.359,18.359,0,0,0-2.581,1.788Z" transform="translate(-371.22 -180.352)"/><path d="M406.778,186.171a1.251,1.251,0,0,1,.274.03c5.06,1.133,13.764,5,20.521,8.233a6.375,6.375,0,0,1,8.136-1.387l.035.021a9.294,9.294,0,0,0,4.712,1.45h1.5a9.292,9.292,0,0,0,4.712-1.448l.034-.021a6.392,6.392,0,0,1,3.256-.892h0a6.392,6.392,0,0,1,1.67.222,6.313,6.313,0,0,1,4.5,4.608V197q.053.227.091.456h31.917a1.25,1.25,0,0,1,1.25,1.264,60.8,60.8,0,0,1-1.786,13.457A92.225,92.225,0,0,1,478.551,235a1.25,1.25,0,0,1-1.075.612h-38.93a1.25,1.25,0,0,1-1.25-1.25V226.6c-.557-15.082-15.5-25.772-24.893-31.021l-2.792,2.257a1.25,1.25,0,0,1-1.155.222c-2.367-.733-3.9-1.935-4.542-3.574a5.445,5.445,0,0,1,.3-4.3l1.422-3.258A1.25,1.25,0,0,1,406.778,186.171Zm21.213,11.1a1.245,1.245,0,0,1-.542-.124c-5.2-2.506-14.427-6.768-19.947-8.26l-.984,2.255a1.251,1.251,0,0,1-.1.208,2.917,2.917,0,0,0-.172,2.228,3.725,3.725,0,0,0,2.332,1.873l2.907-2.35a1.25,1.25,0,0,1,1.385-.125,72.217,72.217,0,0,1,16.8,12.387c6.451,6.64,9.856,13.761,10.123,21.164v6.581h36.953a90.122,90.122,0,0,0,4.834-10.32,84.235,84.235,0,0,0,3.589-11.227,59.687,59.687,0,0,0,1.678-11.608h-31.8a1.25,1.25,0,0,1-1.249-1.3,4.071,4.071,0,0,0-.1-1.082,3.815,3.815,0,0,0-2.719-2.781,3.892,3.892,0,0,0-2.987.4A11.793,11.793,0,0,1,442,197.018h-1.6a11.8,11.8,0,0,1-5.982-1.829,3.9,3.9,0,0,0-2.986-.4,3.841,3.841,0,0,0-2.349,1.837,1.25,1.25,0,0,1-1.093.646Z" transform="translate(-393.456 -174.733)"/><path d="M451.487,192.461h4.238a1.25,1.25,0,0,1,1.221.981l6.336,28.791a1.25,1.25,0,0,1-2.025,1.225,2.6,2.6,0,0,0-4.072.893,1.25,1.25,0,0,1-2.352-.264l-5.11-23.225a1.251,1.251,0,0,1-.017-.443,52.745,52.745,0,0,0,.532-6.723A1.25,1.25,0,0,1,451.487,192.461Zm3.233,2.5h-2.013c-.066,1.8-.232,3.673-.495,5.584l4.538,20.627.026-.017a5.093,5.093,0,0,1,2.791-.829,4.962,4.962,0,0,1,.747.057Z" transform="translate(-356.809 -169.734)"/><path d="M414.22,228.919a12.523,12.523,0,1,1,11.739-16.849,1.25,1.25,0,0,1-1.173,1.683h-6.158a5.131,5.131,0,0,1,0,5.288h6.159a1.25,1.25,0,0,1,1.173,1.682,12.513,12.513,0,0,1-11.739,8.2Zm0-22.543a10.021,10.021,0,1,0,0,20.043,9.921,9.921,0,0,0,5.78-1.844,10.035,10.035,0,0,0,2.806-3.035h-8.59a1.251,1.251,0,0,1,0-2.5,2.643,2.643,0,1,0,0-5.286,1.25,1.25,0,1,1,0-2.5h8.59A10.037,10.037,0,0,0,420,208.22a9.922,9.922,0,0,0-5.78-1.844Z" transform="translate(-394.959 -160.661)" fill="#da3832"/><path d="M3.893-1.25A5.143,5.143,0,1,1-1.25,3.893,5.143,5.143,0,0,1,3.893-1.25Zm0,7.786A2.643,2.643,0,1,0,1.25,3.893,2.643,2.643,0,0,0,3.893,6.536Z" transform="translate(15.37 51.842)"/><path d="M409.229,207.986h25.82a1.25,1.25,0,0,1,1.25,1.25v7.788a1.25,1.25,0,0,1-1.25,1.25h-25.82a1.251,1.251,0,0,1,0-2.5,2.643,2.643,0,1,0,0-5.286,1.25,1.25,0,0,1,0-2.5Zm24.57,2.5H413.637a5.132,5.132,0,0,1,0,5.288H433.8Z" transform="translate(-389.965 -157.394)"/></g></g></svg>