<svg xmlns="http://www.w3.org/2000/svg" width="150" height="101.25" viewBox="0 0 150 101.25"><g transform="translate(19652 2323)"><rect width="150" height="101.25" transform="translate(-19652 -2323)" fill="#fff" opacity="0"/><g transform="translate(-19646.25 -2292.999)"><path d="M0,1.794A1.25,1.25,0,0,1-1.25.55,1.25,1.25,0,0,1-.007-.706L101.952-1.25a1.251,1.251,0,0,1,1.257,1.243,1.25,1.25,0,0,1-1.243,1.257L.007,1.794Z" transform="translate(3.953 16.966)"/><path d="M0,18.273a1.25,1.25,0,0,1-1.25-1.25V0A1.25,1.25,0,0,1,0-1.25,1.25,1.25,0,0,1,1.25,0V17.023A1.25,1.25,0,0,1,0,18.273Z" transform="translate(62.62)"/><path d="M223.845,209.959h-3.118a4.807,4.807,0,0,1-4.8-4.792v-8.682a1.25,1.25,0,0,1,2.5,0v8.68a2.3,2.3,0,0,0,2.3,2.294h3.118a1.25,1.25,0,1,1,0,2.5Z" transform="translate(-85.988 -174.494)"/><path d="M0,15.919a1.25,1.25,0,0,1-1.25-1.25V0A1.25,1.25,0,0,1,0-1.25,1.25,1.25,0,0,1,1.25,0V14.669A1.25,1.25,0,0,1,0,15.919Z" transform="translate(39.508 2.654)"/><path d="M10.935-1.25A12.184,12.184,0,1,1-1.25,10.935,12.185,12.185,0,0,1,10.935-1.25Zm0,21.869A9.685,9.685,0,1,0,1.25,10.934a9.685,9.685,0,0,0,9.685,9.685Z" transform="translate(97.003 37.885)" fill="#da3832"/><path d="M5.439-1.25A6.689,6.689,0,1,1-1.25,5.439,6.689,6.689,0,0,1,5.439-1.25Zm0,10.878A4.189,4.189,0,1,0,1.25,5.439,4.189,4.189,0,0,0,5.439,9.628Z" transform="translate(102.5 43.381)" fill="#da3832"/><path d="M189.259,182.2h16.234a29.613,29.613,0,0,1,13.515,3.281l26.451,13.646,13.613.66a20.908,20.908,0,0,1,19.889,20.889v2.238a11.263,11.263,0,0,1-11.208,11.263h-.006l-3.126.015a1.249,1.249,0,0,1-1.256-1.216,16.216,16.216,0,1,0-32.432.159,1.25,1.25,0,0,1-1.24,1.229l-46.1.227h-.006a1.25,1.25,0,0,1-1.25-1.245A16.232,16.232,0,0,0,166.1,217.177h-.006a16.234,16.234,0,0,0-16.226,16.242v.092a1.25,1.25,0,0,1-1.244,1.25h-.808a9.847,9.847,0,0,1-9.847-9.805s0,0,0,0V209.266a12.079,12.079,0,0,1,7.569-11.206l35.386-14.246a22.228,22.228,0,0,1,8.335-1.614Zm76.534,49.485,1.945-.009h.006a8.763,8.763,0,0,0,8.717-8.763v-2.238a18.408,18.408,0,0,0-17.51-18.391l-13.884-.673a1.25,1.25,0,0,1-.513-.138L217.862,187.7a27.1,27.1,0,0,0-12.369-3H189.259a19.738,19.738,0,0,0-7.4,1.434L146.47,200.38a9.579,9.579,0,0,0-6,8.887v15.685a7.347,7.347,0,0,0,6.935,7.3,18.72,18.72,0,0,1,18.69-17.576h.007a18.72,18.72,0,0,1,18.687,17.406l43.711-.215a18.718,18.718,0,0,1,37.295-.183Z" transform="translate(-139.218 -183.395)"/><path d="M10.935-1.25A12.184,12.184,0,1,1-1.25,10.935,12.185,12.185,0,0,1,10.935-1.25Zm0,21.869A9.685,9.685,0,1,0,1.25,10.934a9.685,9.685,0,0,0,9.685,9.685Z" transform="translate(15.946 38.13)" fill="#da3832"/><path d="M5.439-1.25A6.689,6.689,0,1,1-1.25,5.439,6.689,6.689,0,0,1,5.439-1.25Zm0,10.878A4.189,4.189,0,1,0,1.25,5.439,4.189,4.189,0,0,0,5.439,9.628Z" transform="translate(21.439 43.627)" fill="#da3832"/><path d="M139.268,198.231h1.371c3.068,0,5.472,1.7,5.472,3.867v5.866c0,2.168-2.4,3.867-5.472,3.867h-1.371a1.25,1.25,0,0,1-1.25-1.25v-11.1a1.25,1.25,0,0,1,1.25-1.25Zm1.371,11.1c1.724,0,2.972-.816,2.972-1.367V202.1c0-.55-1.248-1.367-2.972-1.367h-.121v8.6Z" transform="translate(-139.182 -172.449)"/><path d="M180.773,195.236h7.366a3.77,3.77,0,1,1,0,7.54h-7.366a3.77,3.77,0,1,1,0-7.54Zm7.366,5.04a1.27,1.27,0,1,0,0-2.54h-7.366a1.27,1.27,0,0,0,0,2.54Z" transform="translate(-112.567 -174.494)"/></g></g></svg>