<svg xmlns="http://www.w3.org/2000/svg" width="150" height="101.25" viewBox="0 0 150 101.25"><g transform="translate(-13506 -1924)"><rect width="150" height="101.25" transform="translate(13506 1924)" fill="#fff" opacity="0"/><g transform="translate(0 -1.49)"><path d="M0-1.25H61.9A1.25,1.25,0,0,1,63.15,0V7.038a1.25,1.25,0,0,1-1.25,1.25H0a1.25,1.25,0,0,1-1.25-1.25V0A1.25,1.25,0,0,1,0-1.25Zm60.65,2.5H1.25V5.788h59.4Z" transform="translate(13561.645 2000.35)"/><path d="M18.75-1.25h28.2V8.288H18.75Zm25.7,2.5H21.25V5.788h23.2Z" transform="translate(13489 2000.35)"/><path d="M8.83,48.55H0V3.334A3.338,3.338,0,0,1,3.334,0H25.476A3.319,3.319,0,0,1,28.3,1.56l5.482,27.981V45.215a3.338,3.338,0,0,1-3.334,3.334H22.764a9.173,9.173,0,0,0-13.934,0Z" transform="translate(13619.219 1951.8)" fill="rgba(0,0,0,0)"/><path d="M8.83,49.8H0a1.25,1.25,0,0,1-1.25-1.25V3.334A4.59,4.59,0,0,1,3.334-1.25H25.476A4.562,4.562,0,0,1,29.356.894a1.25,1.25,0,0,1,.169.426L35.007,29.3a1.25,1.25,0,0,1,.023.24V45.215A4.59,4.59,0,0,1,30.446,49.8H22.764a1.25,1.25,0,0,1-.949-.436,7.923,7.923,0,0,0-12.036,0A1.251,1.251,0,0,1,8.83,49.8ZM1.25,47.3H8.277a10.423,10.423,0,0,1,15.041,0h7.129a2.087,2.087,0,0,0,2.084-2.084V29.662L27.122,2.056a2.072,2.072,0,0,0-1.646-.806H3.334A2.087,2.087,0,0,0,1.25,3.334Z" transform="translate(13619.219 1951.8)"/><path d="M4.014-1.25A5.264,5.264,0,1,1-1.25,4.014,5.264,5.264,0,0,1,4.014-1.25Zm0,8.029A2.764,2.764,0,1,0,1.25,4.015,2.764,2.764,0,0,0,4.014,6.779Z" transform="translate(13631.005 2002.302)" fill="#ed1c24"/><path d="M29.631,49.35H3.957A3.961,3.961,0,0,1,0,45.394V3.957A3.961,3.961,0,0,1,3.957,0H98.819a3.959,3.959,0,0,1,3.955,3.955v41.44a3.959,3.959,0,0,1-3.955,3.955H43.554a9.162,9.162,0,0,0-13.923,0Z" transform="translate(13511.962 1951)" fill="rgba(0,0,0,0)"/><path d="M29.631,50.6H3.957A5.212,5.212,0,0,1-1.25,45.394V3.957A5.213,5.213,0,0,1,3.957-1.25H98.819a5.211,5.211,0,0,1,5.2,5.2V45.39a5.211,5.211,0,0,1-5.2,5.2H43.554a1.25,1.25,0,0,1-.949-.436,7.912,7.912,0,0,0-12.026,0A1.251,1.251,0,0,1,29.631,50.6ZM3.957,1.25A2.71,2.71,0,0,0,1.25,3.957V45.394A2.71,2.71,0,0,0,3.957,48.1H29.078a10.41,10.41,0,0,1,15.029,0H98.819a2.708,2.708,0,0,0,2.7-2.7V3.955a2.708,2.708,0,0,0-2.7-2.7Z" transform="translate(13511.962 1951)"/><path d="M-1.25-1.25H5.735v28.9H-1.25Zm4.485,2.5H1.25v23.9H3.235Z" transform="translate(13614.737 1968.027)"/><path d="M97.953,33.822H71.491V6.367a4.59,4.59,0,0,1,4.585-4.585H88.129A4.561,4.561,0,0,1,92.01,3.926l.124.2Zm-23.962-2.5H94.916L89.775,5.088a2.073,2.073,0,0,0-1.647-.806H76.076a2.087,2.087,0,0,0-2.085,2.085Z" transform="translate(13556.565 1948.769)"/><path d="M0,8.838a1.246,1.246,0,0,1-.884-.366,1.25,1.25,0,0,1,0-1.768L6.7-.884a1.25,1.25,0,0,1,1.768,0,1.25,1.25,0,0,1,0,1.768L.884,8.472A1.246,1.246,0,0,1,0,8.838Z" transform="translate(13632.859 1966.099)"/><path d="M0,5.8a1.246,1.246,0,0,1-.884-.366,1.25,1.25,0,0,1,0-1.768L3.668-.884a1.25,1.25,0,0,1,1.768,0,1.25,1.25,0,0,1,0,1.768L.884,5.436A1.246,1.246,0,0,1,0,5.8Z" transform="translate(13638.793 1971.83)"/><path d="M1.25,18.734h-2.5V0h2.5Z" transform="translate(13629.308 1980.542)"/><path d="M3.794,1.25H0A1.25,1.25,0,0,1-1.25,0,1.25,1.25,0,0,1,0-1.25H3.794A1.25,1.25,0,0,1,5.044,0a1.25,1.25,0,0,1-1.25,1.25Z" transform="translate(13634.31 1986.621)"/><path d="M9.871,1.25H0A1.25,1.25,0,0,1-1.25,0,1.25,1.25,0,0,1,0-1.25H9.871A1.25,1.25,0,0,1,11.121,0,1.25,1.25,0,0,1,9.871,1.25Z" transform="translate(13619.224 1985.18)"/><path d="M102.718,1.25H0v-2.5H102.718Z" transform="translate(13511.962 1981.119)"/><path d="M102.718,1.25H0v-2.5H102.718Z" transform="translate(13511.962 1992.647)"/><path d="M9.173-1.25A10.423,10.423,0,1,1-1.25,9.173,10.423,10.423,0,0,1,9.173-1.25Zm0,18.346A7.923,7.923,0,1,0,1.25,9.173,7.923,7.923,0,0,0,9.173,17.1Z" transform="translate(13539.382 1997.144)" fill="#ed1c24"/><path d="M4.014-1.25A5.264,5.264,0,1,1-1.25,4.014,5.264,5.264,0,0,1,4.014-1.25Zm0,8.029A2.764,2.764,0,1,0,1.25,4.015,2.764,2.764,0,0,0,4.014,6.779Z" transform="translate(13544.54 2002.302)" fill="#ed1c24"/><path d="M9.173-1.25A10.423,10.423,0,1,1-1.25,9.173,10.423,10.423,0,0,1,9.173-1.25Zm0,18.346A7.923,7.923,0,1,0,1.25,9.173,7.923,7.923,0,0,0,9.173,17.1Z" transform="translate(13625.842 1997.144)" fill="#ed1c24"/></g></g></svg>