<svg xmlns="http://www.w3.org/2000/svg" xmlns:xlink="http://www.w3.org/1999/xlink" width="150" height="101.25" viewBox="0 0 150 101.25">
  <defs>
    <clipPath id="clip-path">
      <rect id="Rectangle_1944" data-name="Rectangle 1944" width="137.727" height="79.473" transform="translate(0 0)"/>
    </clipPath>
  </defs>
  <g id="icv" transform="translate(-11927 -2192)">
    <rect id="Rectangle_1945" data-name="Rectangle 1945" width="150" height="101.25" transform="translate(11927 2192)" fill="#fff" opacity="0"/>
    <g id="Group_5788" data-name="Group 5788" transform="translate(11933 2203)">
      <g id="Group_5787" data-name="Group 5787" clip-path="url(#clip-path)">
        <path id="Path_15694" data-name="Path 15694" d="M91.473,70.741H67.793a5.854,5.854,0,0,1,0-11.709h23.68a5.854,5.854,0,0,1,0,11.709m-23.68-9.209a3.354,3.354,0,1,0,0,6.709H91.472a3.354,3.354,0,0,0,0-6.709Z"/>
        <path id="Path_15695" data-name="Path 15695" d="M107.277,66.2h-11.2a1.25,1.25,0,1,1,0-2.5h11.2a1.25,1.25,0,1,1,0,2.5"/>
        <path id="Path_15696" data-name="Path 15696" d="M44.855,66.219a1.25,1.25,0,0,1,0-2.5L63.188,63.7h0a1.25,1.25,0,0,1,0,2.5l-18.334.022Z"/>
        <path id="Path_15697" data-name="Path 15697" d="M33.808,79.472h0a12.5,12.5,0,1,1,12.5-12.5,12.511,12.511,0,0,1-12.5,12.5m0-22.5a10,10,0,1,0,10,10,10.01,10.01,0,0,0-10-10m0,15.989a5.991,5.991,0,1,1,0-11.982h0a5.991,5.991,0,0,1,0,11.982m0-9.482A3.491,3.491,0,1,0,37.3,66.974a3.495,3.495,0,0,0-3.492-3.491" fill="#da3832"/>
        <path id="Path_15698" data-name="Path 15698" d="M22.559,66.221H1.95A2.158,2.158,0,0,1,0,63.865V55.748A2.154,2.154,0,0,1,1.95,53.4h13.8a1.305,1.305,0,0,1,.252.025l88.235-.025a1.25,1.25,0,0,1,0,2.5l-88.486.025h0a1.292,1.292,0,0,1-.25-.025H2.5v7.823H22.559a1.25,1.25,0,0,1,0,2.5"/>
        <path id="Path_15699" data-name="Path 15699" d="M81.315,55.9a1.25,1.25,0,0,1-1.25-1.25V2.5H2.5V53.429A1.25,1.25,0,0,1,2.226,55.9H1.681A1.751,1.751,0,0,1,0,54.048V1.251A1.25,1.25,0,0,1,1.253,0H81.315a1.25,1.25,0,0,1,1.25,1.25v53.4a1.25,1.25,0,0,1-1.25,1.25"/>
        <path id="Path_15700" data-name="Path 15700" d="M84.968,20.267H1.253a1.25,1.25,0,1,1,0-2.5H84.968a1.25,1.25,0,0,1,0,2.5"/>
        <path id="Path_15701" data-name="Path 15701" d="M81.315,49.655H1.253a1.25,1.25,0,1,1,0-2.5H81.315a1.25,1.25,0,0,1,0,2.5"/>
        <path id="Path_15702" data-name="Path 15702" d="M61.3,55.9a1.25,1.25,0,0,1-1.25-1.25V1.251a1.25,1.25,0,1,1,2.5,0v53.4A1.25,1.25,0,0,1,61.3,55.9"/>
        <path id="Path_15703" data-name="Path 15703" d="M41.283,55.9a1.25,1.25,0,0,1-1.25-1.25V1.251a1.25,1.25,0,1,1,2.5,0v53.4a1.25,1.25,0,0,1-1.25,1.25"/>
        <path id="Path_15704" data-name="Path 15704" d="M21.268,55.9a1.25,1.25,0,0,1-1.25-1.25V1.251a1.25,1.25,0,1,1,2.5,0v53.4a1.25,1.25,0,0,1-1.25,1.25"/>
        <path id="Path_15705" data-name="Path 15705" d="M7.925,49.656a1.25,1.25,0,0,1-1.25-1.25V19.016a1.25,1.25,0,0,1,2.5,0v29.39a1.25,1.25,0,0,1-1.25,1.25"/>
        <path id="Path_15706" data-name="Path 15706" d="M14.6,49.656a1.25,1.25,0,0,1-1.25-1.25V19.016a1.25,1.25,0,0,1,2.5,0v29.39a1.25,1.25,0,0,1-1.25,1.25"/>
        <path id="Path_15707" data-name="Path 15707" d="M27.94,49.656a1.25,1.25,0,0,1-1.25-1.25V19.016a1.25,1.25,0,0,1,2.5,0v29.39a1.25,1.25,0,0,1-1.25,1.25"/>
        <path id="Path_15708" data-name="Path 15708" d="M34.612,49.657a1.25,1.25,0,0,1-1.25-1.25V19.348a1.25,1.25,0,1,1,2.5,0V48.407a1.25,1.25,0,0,1-1.25,1.25"/>
        <path id="Path_15709" data-name="Path 15709" d="M47.957,49.657a1.25,1.25,0,0,1-1.25-1.25V19.348a1.25,1.25,0,0,1,2.5,0V48.407a1.251,1.251,0,0,1-1.25,1.25"/>
        <path id="Path_15710" data-name="Path 15710" d="M54.626,49.656a1.25,1.25,0,0,1-1.25-1.25V19.016a1.25,1.25,0,1,1,2.5,0v29.39a1.25,1.25,0,0,1-1.25,1.25"/>
        <path id="Path_15711" data-name="Path 15711" d="M67.971,49.656a1.25,1.25,0,0,1-1.25-1.25V19.016a1.25,1.25,0,0,1,2.5,0v29.39a1.25,1.25,0,0,1-1.25,1.25"/>
        <path id="Path_15712" data-name="Path 15712" d="M74.642,49.656a1.25,1.25,0,0,1-1.25-1.25V19.016a1.25,1.25,0,0,1,2.5,0v29.39a1.25,1.25,0,0,1-1.25,1.25"/>
        <path id="Path_15713" data-name="Path 15713" d="M132.92,68.3h-.035l-2.708-.034a1.25,1.25,0,0,1,.016-2.5h.015l2.705.034h.01c.756,0,1.409-.885,1.455-1.982l.818-20.33c0-.034,0-.068.008-.1a2.959,2.959,0,0,0-2.071-3.192L119.568,34.9a1.174,1.174,0,0,1-.168-.08,7.2,7.2,0,0,1-2.883-3.076c-1.908-3.361-3.9-7.212-5.655-10.611l-.748-1.445a1.319,1.319,0,0,1-.074-.177,4.385,4.385,0,0,0-3.586-2.934c-2.648-.466-14.976-1.06-18.693-1.231a1.268,1.268,0,0,0-.908.365,2.609,2.609,0,0,0-.636,1.931V52.083a1.915,1.915,0,0,0,.341,1.2.709.709,0,0,0,.575.186,1.25,1.25,0,0,1,0,2.5A3.21,3.21,0,0,1,84.747,55a4.352,4.352,0,0,1-1.029-2.977V17.641A4.941,4.941,0,0,1,85.128,13.9a3.782,3.782,0,0,1,2.75-1.053c4.811.222,16.29.788,18.95,1.257a6.877,6.877,0,0,1,5.549,4.514l.706,1.367c1.745,3.377,3.724,7.206,5.643,10.589a4.789,4.789,0,0,0,1.844,2.032l13.384,5.227a5.426,5.426,0,0,1,3.739,5.8l-.817,20.286c-.1,2.464-1.838,4.379-3.956,4.379M109.233,32.609h-.027l-16.819-.362a1.2,1.2,0,0,1-.239-.03c-1.6-.348-2.546-.913-2.652-2.76l0-9.505a1.894,1.894,0,0,1,.4-1.34,2.458,2.458,0,0,1,1.988-.836c1.477-.024,7.183,0,13.712.468a3.656,3.656,0,0,1,2.773,1.528,30.323,30.323,0,0,1,4.219,9.924,2.05,2.05,0,0,1-.279,1.759,3.4,3.4,0,0,1-3.012,1.153h-.06M92.566,29.75l16.646.358h.033a3.59,3.59,0,0,0,.851-.072,27.758,27.758,0,0,0-3.793-8.851,1.161,1.161,0,0,0-.867-.446c-6.366-.454-11.891-.489-13.442-.464v9.11a1.934,1.934,0,0,0,.023.206,3.751,3.751,0,0,0,.549.159m-.6-10.14h0Z"/>
        <path id="Path_15714" data-name="Path 15714" d="M118.832,78.291h0A12.611,12.611,0,1,1,131.442,65.68,12.528,12.528,0,0,1,118.83,78.291m0-22.722a10.111,10.111,0,1,0,10.11,10.109,10.122,10.122,0,0,0-10.11-10.109m0,16.15a6.039,6.039,0,0,1,0-12.078h0a6.039,6.039,0,0,1,0,12.078Zm0-9.58v0a3.539,3.539,0,0,0,0,7.078h0a3.54,3.54,0,0,0,0-7.08" fill="#da3832"/>
        <path id="Path_15715" data-name="Path 15715" d="M102.423,63.673a1.25,1.25,0,0,1-1.25-1.25c0-.167.2-16.662,17.65-16.662,7.869,0,17.182,3.416,17.576,3.561a1.25,1.25,0,0,1-.869,2.344c-.092-.033-9.293-3.4-16.707-3.4-14.978,0-15.15,13.584-15.15,14.162a1.25,1.25,0,0,1-1.25,1.25"/>
      </g>
    </g>
  </g>
</svg>
