<svg xmlns="http://www.w3.org/2000/svg" width="150" height="101.25" viewBox="0 0 150 101.25"><g transform="translate(-13676 -1924)"><rect width="150" height="101.25" transform="translate(13676 1924)" fill="#fff" opacity="0"/><g transform="translate(-192.565 -9.064)"><path d="M0-1.25H52.881A1.25,1.25,0,0,1,54.131,0V7.615a1.25,1.25,0,0,1-1.25,1.25H0a1.25,1.25,0,0,1-1.25-1.25V0A1.25,1.25,0,0,1,0-1.25Zm51.631,2.5H1.25V6.365H51.631Z" transform="translate(13918.656 2006.683)"/><path d="M0-1.25H10.272A1.25,1.25,0,0,1,11.522,0V7.615a1.25,1.25,0,0,1-1.25,1.25H0a1.25,1.25,0,0,1-1.25-1.25V0A1.25,1.25,0,0,1,0-1.25Zm9.022,2.5H1.25V6.365H9.022Z" transform="translate(13881.768 2006.683)"/><path d="M4.876,41.615H0V3.608A3.612,3.612,0,0,1,3.608,0H27.565a3.591,3.591,0,0,1,3.054,1.688l5.932,19.36V38.007a3.612,3.612,0,0,1-3.608,3.608H19.953a9.926,9.926,0,0,0-15.077,0Z" transform="translate(13971.538 1965.068)" fill="rgba(0,0,0,0)"/><path d="M4.876,42.865H0a1.25,1.25,0,0,1-1.25-1.25V3.608A4.863,4.863,0,0,1,3.608-1.25H27.565a4.834,4.834,0,0,1,4.111,2.272,1.25,1.25,0,0,1,.137.3l5.932,19.36a1.25,1.25,0,0,1,.055.366V38.007a4.863,4.863,0,0,1-4.858,4.858H19.953A1.25,1.25,0,0,1,19,42.428a8.676,8.676,0,0,0-13.179,0,1.252,1.252,0,0,1-.945.437Zm-3.626-2.5H4.321a11.175,11.175,0,0,1,16.187,0H32.942A2.361,2.361,0,0,0,35.3,38.007V21.235l-5.823-19a2.345,2.345,0,0,0-1.912-.98H3.608A2.361,2.361,0,0,0,1.25,3.608Z" transform="translate(13971.538 1965.068)"/><path d="M9.925-1.25A11.175,11.175,0,1,1-1.25,9.925,11.175,11.175,0,0,1,9.925-1.25Zm0,19.85A8.675,8.675,0,1,0,1.25,9.925,8.675,8.675,0,0,0,9.925,18.6Z" transform="translate(13974.028 2003.214)" fill="#ed1c24"/><path d="M4.344-1.25A5.594,5.594,0,1,1-1.25,4.344,5.594,5.594,0,0,1,4.344-1.25Zm0,8.687A3.094,3.094,0,1,0,1.25,4.343,3.094,3.094,0,0,0,4.344,7.437Z" transform="translate(13979.609 2008.795)" fill="#ed1c24"/><path d="M18.964,53.4H3.564A3.568,3.568,0,0,1,0,49.833V3.564A3.568,3.568,0,0,1,3.564,0h80.52a3.566,3.566,0,0,1,3.563,3.562V49.834A3.567,3.567,0,0,1,84.084,53.4H34.03a9.913,9.913,0,0,0-15.066,0Z" transform="translate(13879.042 1953.287)" fill="rgba(0,0,0,0)"/><path d="M18.964,54.647H3.564A4.819,4.819,0,0,1-1.25,49.833V3.564A4.819,4.819,0,0,1,3.564-1.25h80.52A4.818,4.818,0,0,1,88.9,3.562V49.834a4.818,4.818,0,0,1-4.813,4.813H34.03a1.25,1.25,0,0,1-.949-.436,8.663,8.663,0,0,0-13.169,0l-.006.007A1.251,1.251,0,0,1,18.964,54.647ZM3.564,1.25A2.316,2.316,0,0,0,1.25,3.564V49.833a2.316,2.316,0,0,0,2.314,2.314H18.409a11.16,11.16,0,0,1,16.175,0h49.5A2.315,2.315,0,0,0,86.4,49.834V3.562A2.315,2.315,0,0,0,84.084,1.25Z" transform="translate(13879.042 1953.287)"/><path d="M-1.25-1.25H6.1V29.816H-1.25ZM3.6,1.25H1.25V27.316H3.6Z" transform="translate(13966.688 1971.71)"/><path d="M103.981,32.329H64.491V13.64a4.863,4.863,0,0,1,4.858-4.858H93.3a4.833,4.833,0,0,1,4.113,2.272l.088.141Zm-36.99-2.5H100.6L95.218,12.262a2.345,2.345,0,0,0-1.914-.98H69.349a2.361,2.361,0,0,0-2.358,2.358Z" transform="translate(13905.798 1955.036)"/><path d="M.884,9.094-.884,7.326l8.21-8.21L9.094.884Z" transform="translate(13980.063 1969.625)"/><path d="M0,9.46a1.246,1.246,0,0,1-.884-.366,1.25,1.25,0,0,1,0-1.768l8.21-8.21a1.25,1.25,0,0,1,1.768,0,1.25,1.25,0,0,1,0,1.768L.884,9.094A1.246,1.246,0,0,1,0,9.46Z" transform="translate(13980.063 1969.625)"/><path d="M.884,5.809-.884,4.041,4.041-.884,5.809.884Z" transform="translate(13986.479 1975.824)"/><path d="M0,6.175a1.246,1.246,0,0,1-.884-.366,1.25,1.25,0,0,1,0-1.768L4.041-.884a1.25,1.25,0,0,1,1.768,0,1.25,1.25,0,0,1,0,1.768L.884,5.809A1.246,1.246,0,0,1,0,6.175Z" transform="translate(13986.479 1975.824)"/><path d="M4.1,1.25H0v-2.5H4.1Z" transform="translate(13981.63 1991.829)"/><path d="M4.1,1.25H0A1.25,1.25,0,0,1-1.25,0,1.25,1.25,0,0,1,0-1.25H4.1a1.25,1.25,0,0,1,.887.364A1.25,1.25,0,0,1,5.355,0a1.25,1.25,0,0,1-.368.886A1.25,1.25,0,0,1,4.1,1.25Z" transform="translate(13981.63 1991.829)"/><path d="M87.109,1.25H0v-2.5H87.109Z" transform="translate(13879.521 1971.71)"/><path d="M1.25,53.013h-2.5V0h2.5Z" transform="translate(13937.005 1953)"/><path d="M1.25,50.724h-2.5V0h2.5Z" transform="translate(13907.381 1953)"/><path d="M1.25,34.3h-2.5V0h2.5Z" transform="translate(13951.037 1971.71)"/><path d="M1.25,34.1h-2.5V0h2.5Z" transform="translate(13893.348 1971.71)"/><path d="M1.25,34.3h-2.5V0h2.5Z" transform="translate(13921.412 1971.71)"/><path d="M9.925-1.25A11.175,11.175,0,1,1-1.25,9.925,11.175,11.175,0,0,1,9.925-1.25Zm0,19.85A8.675,8.675,0,1,0,1.25,9.925,8.675,8.675,0,0,0,9.925,18.6Z" transform="translate(13895.614 2003.214)" fill="#ed1c24"/><path d="M4.344-1.25A5.594,5.594,0,1,1-1.25,4.344,5.594,5.594,0,0,1,4.344-1.25Zm0,8.687A3.094,3.094,0,1,0,1.25,4.343,3.094,3.094,0,0,0,4.344,7.437Z" transform="translate(13901.193 2008.795)" fill="#ed1c24"/></g></g></svg>