<svg xmlns="http://www.w3.org/2000/svg" width="150" height="101.25" viewBox="0 0 150 101.25"><g transform="translate(19157 2164)"><g transform="translate(-19157 -2164)"><rect width="150" height="101.25" fill="#fff" opacity="0"/><g transform="translate(3.749 26.251)"><path d="M464.473,371.309H425.806a1.25,1.25,0,0,1-1.25-1.25V350.237a1.25,1.25,0,0,1,1.25-1.25H457.19a1.25,1.25,0,0,1,1.035.55l7.283,10.767a1.25,1.25,0,0,1,.215.7v9.055a1.25,1.25,0,0,1-1.25,1.25Zm-37.417-2.5h36.167v-7.422l-6.7-9.9h-29.47Z" transform="translate(-365.116 -344.363)" fill="#da3832"/><path d="M464.473,371.309H425.806a1.25,1.25,0,0,1-1.25-1.25V350.237a1.25,1.25,0,0,1,1.25-1.25H457.19a1.25,1.25,0,0,1,1.035.55l7.283,10.767a1.25,1.25,0,0,1,.215.7v9.055a1.25,1.25,0,0,1-1.25,1.25Zm-37.417-2.5h36.167v-7.422l-6.7-9.9h-29.47Z" transform="translate(-365.116 -344.363)" fill="#da3832"/><path d="M10.28,21.072A1.25,1.25,0,0,1,9.169,20.4L-1.11.575A1.25,1.25,0,0,1-.575-1.11,1.25,1.25,0,0,1,1.11-.575L11.388,19.246a1.25,1.25,0,0,1-1.109,1.826Z" transform="translate(82.225 5.873)" fill="#da3832"/><path d="M10.28,21.072A1.25,1.25,0,0,1,9.169,20.4L-1.11.575A1.25,1.25,0,0,1-.575-1.11,1.25,1.25,0,0,1,1.11-.575L11.388,19.246a1.25,1.25,0,0,1-1.109,1.826Z" transform="translate(82.225 5.873)" fill="#da3832"/><path d="M0,25.845A1.25,1.25,0,0,1-1.25,24.6V0A1.25,1.25,0,0,1,0-1.25,1.25,1.25,0,0,1,1.25,0V24.595A1.25,1.25,0,0,1,0,25.845Z" transform="translate(60.69 25.695)" fill="#da3832"/><path d="M0,25.845A1.25,1.25,0,0,1-1.25,24.6V0A1.25,1.25,0,0,1,0-1.25,1.25,1.25,0,0,1,1.25,0V24.595A1.25,1.25,0,0,1,0,25.845Z" transform="translate(60.69 25.695)" fill="#da3832"/><path d="M43.07,1.25H0A1.25,1.25,0,0,1-1.25,0,1.25,1.25,0,0,1,0-1.25H43.07A1.25,1.25,0,0,1,44.32,0,1.25,1.25,0,0,1,43.07,1.25Z" transform="translate(99.357 25.695)" fill="#da3832"/><path d="M440.127,345.257h35.239a1.25,1.25,0,0,1,1.035.55L487.288,361.9h34.577a9.092,9.092,0,0,1,9.081,9.081V397.9a1.25,1.25,0,0,1-1.25,1.25H519.282a1.25,1.25,0,0,1-1.246-1.352c.027-.324.052-.669.052-1a12.21,12.21,0,1,0-24.419,0c0,.331.025.676.051,1a1.25,1.25,0,0,1-1.246,1.352H432.239a1.25,1.25,0,0,1-1.246-1.352c.027-.326.053-.672.053-1a12.21,12.21,0,1,0-24.419,0c0,.331.025.675.051,1a1.25,1.25,0,0,1-1.246,1.352H387.267a1.25,1.25,0,0,1-1.25-1.25V369.026a1.25,1.25,0,0,1,1.25-1.25h51.61V346.507A1.25,1.25,0,0,1,440.127,345.257Zm34.575,2.5H441.377v21.269a1.25,1.25,0,0,1-1.25,1.25h-51.61v26.372h15.611a14.71,14.71,0,1,1,29.419,0H491.17a14.71,14.71,0,1,1,29.419,0h7.857V370.979a6.589,6.589,0,0,0-6.581-6.581h-35.24a1.25,1.25,0,0,1-1.035-.55Z" transform="translate(-387.267 -346.507)" fill="#da3832"/><path d="M412.226,368.645a14.708,14.708,0,1,1-10.4,4.308A14.708,14.708,0,0,1,412.226,368.645Zm0,26.919a12.209,12.209,0,1,0-8.634-3.576,12.209,12.209,0,0,0,8.634,3.576Z" transform="translate(-380.657 -333.064)" fill="#da3832"/><path d="M409.575,373.258a7.445,7.445,0,1,1-7.444,7.445,7.445,7.445,0,0,1,7.444-7.445Zm0,12.39a4.945,4.945,0,1,0-4.945-4.945,4.945,4.945,0,0,0,4.945,4.945Z" transform="translate(-378.005 -330.413)" fill="#da3832"/><path d="M467.5,368.645a14.708,14.708,0,1,1-10.4,4.308A14.708,14.708,0,0,1,467.5,368.645Zm0,26.919a12.21,12.21,0,1,0-8.634-3.576,12.21,12.21,0,0,0,8.634,3.576Z" transform="translate(-348.887 -333.064)" fill="#da3832"/><path d="M464.848,373.258A7.445,7.445,0,1,1,457.4,380.7,7.445,7.445,0,0,1,464.848,373.258Zm0,12.39A4.945,4.945,0,1,0,459.9,380.7a4.945,4.945,0,0,0,4.948,4.947Z" transform="translate(-346.235 -330.413)" fill="#da3832"/></g></g></g></svg>