<svg xmlns="http://www.w3.org/2000/svg" width="150" height="101.25" viewBox="0 0 150 101.25"><g transform="translate(19405 2169)"><rect width="150" height="101.25" transform="translate(-19405 -2169)" fill="#fff" opacity="0"/><g transform="translate(-19395.625 -2150.25)"><path d="M731.7,373.652H672.9a1.25,1.25,0,0,1-1.25-1.25V352.26a7.248,7.248,0,0,1,7.239-7.239h23.234a10.164,10.164,0,0,1,7.219,3.01l23.246,23.491a1.25,1.25,0,0,1-.888,2.129Zm-57.549-2.5H728.7l-21.137-21.36a7.713,7.713,0,0,0-5.443-2.27H678.89a4.745,4.745,0,0,0-4.742,4.736Z" transform="translate(-624.993 -346.271)" fill="#da3832"/><path d="M707.249,366.6H685.861a2.489,2.489,0,0,1-2.48-2.459V351.883a2.488,2.488,0,0,1,2.477-2.484h9.152a2.491,2.491,0,0,1,1.756.73L709,362.364a2.48,2.48,0,0,1-1.754,4.234Zm-21.368-2.5H707.2L695,351.9h-9.119Z" transform="translate(-616.309 -343.031)" fill="#da3832"/><path d="M682.537,366.6h-4.885a3.04,3.04,0,0,1-3.037-3.037V352.439a3.037,3.037,0,0,1,3.031-3.04h4.885a3.04,3.04,0,0,1,3.037,3.037v11.125a3.04,3.04,0,0,1-3.031,3.039Zm-4.888-14.7a.537.537,0,0,0-.533.538v11.128a.537.537,0,0,0,.537.537h4.88a.538.538,0,0,0,.536-.538V352.436a.537.537,0,0,0-.537-.537Z" transform="translate(-622.795 -343.031)" fill="#da3832"/><path d="M0-1.25H8.166A1.25,1.25,0,0,1,9.416,0V31.031a1.25,1.25,0,0,1-1.25,1.25H0a1.25,1.25,0,0,1-1.25-1.25V0A1.25,1.25,0,0,1,0-1.25Zm6.916,2.5H1.25V29.781H6.916Z" transform="translate(39.741 26.133)" fill="#da3832"/><path d="M0-1.25H39.741A1.25,1.25,0,0,1,40.991,0V6.8a1.25,1.25,0,0,1-1.25,1.25H0a1.25,1.25,0,0,1-1.25-1.25V0A1.25,1.25,0,0,1,0-1.25Zm38.491,2.5H1.25v4.3H38.491Z" transform="translate(0 33.754)" fill="#da3832"/><path d="M0-1.25H12.794A1.25,1.25,0,0,1,14.044,0V4.084a1.25,1.25,0,0,1-1.25,1.25H0a1.25,1.25,0,0,1-1.25-1.25V0A1.25,1.25,0,0,1,0-1.25Zm11.544,2.5H1.25V2.834H11.544Z" transform="translate(51.717 31.848)" fill="#da3832"/><path d="M725.192,376.31a12.9,12.9,0,0,1-12.655-15.249,1.25,1.25,0,1,1,2.458.454,10.4,10.4,0,0,0,12.463,12.046A1.25,1.25,0,1,1,728,376a13,13,0,0,1-2.808.31Z" transform="translate(-594.894 -335.159)" fill="#da3832"/><g transform="translate(47.903 47.09)"><path d="M672.9,372.085h53.909a1.25,1.25,0,0,1,.874,2.144,12.737,12.737,0,0,0-3.869,9.177,1.25,1.25,0,0,1-1.25,1.25H672.9a1.25,1.25,0,0,1-1.25-1.25V373.335A1.25,1.25,0,0,1,672.9,372.085Zm51.207,2.5H674.146v7.571H721.36a15.284,15.284,0,0,1,2.743-7.571Z" transform="translate(-672.896 -373.335)" fill="#da3832"/><path d="M715.2,372.085h11.322a1.25,1.25,0,0,1,1.25,1.25v7.734a3.591,3.591,0,0,1-3.587,3.587h-4.74a1.25,1.25,0,0,1-1.25-1.25,12.737,12.737,0,0,0-3.869-9.177,1.25,1.25,0,0,1,.874-2.144Zm10.072,2.5H717.9a15.285,15.285,0,0,1,2.743,7.571h3.54a1.088,1.088,0,0,0,1.087-1.087Z" transform="translate(-641.593 -373.335)" fill="#da3832"/></g><path d="M0-1.25H47.907A1.25,1.25,0,0,1,49.157,0V7.623a1.25,1.25,0,0,1-1.25,1.25H0a1.25,1.25,0,0,1-1.25-1.25V0A1.25,1.25,0,0,1,0-1.25Zm46.657,2.5H1.25V6.373H46.657Z" transform="translate(0 18.51)" fill="#da3832"/><path d="M0-1.25H47.907A1.25,1.25,0,0,1,49.157,0V8.71a1.25,1.25,0,0,1-1.25,1.25H0A1.25,1.25,0,0,1-1.25,8.71V0A1.25,1.25,0,0,1,0-1.25Zm46.657,2.5H1.25V7.46H46.657Z" transform="translate(0 9.8)" fill="#da3832"/><path d="M645.365,360.039H767.2a12.247,12.247,0,0,1,12.247,12.247V389.57a4,4,0,0,1-4,4h-4.331a1.25,1.25,0,0,1-1.25-1.25,12.844,12.844,0,1,0-25.687,0,1.25,1.25,0,0,1-1.25,1.25H681.36a1.25,1.25,0,0,1-1.244-1.374c.043-.431.065-.869.065-1.3a12.844,12.844,0,1,0-25.687,0c0,.434.022.872.065,1.3a1.25,1.25,0,0,1-1.244,1.375h-7.95a1.25,1.25,0,0,1-1.25-1.25V361.289a1.25,1.25,0,0,1,1.25-1.25ZM775.448,391.07a1.5,1.5,0,0,0,1.5-1.5V372.286a9.758,9.758,0,0,0-9.747-9.747H646.615V391.07h5.38v-.177a15.344,15.344,0,1,1,30.688,0c0,.059,0,.118,0,.177h59.052a15.345,15.345,0,0,1,30.587,0Z" transform="translate(-645.365 -335.158)" fill="#da3832"/><path d="M14.087-1.25A15.337,15.337,0,1,1-1.25,14.087,15.337,15.337,0,0,1,14.087-1.25Zm0,28.174a12.837,12.837,0,1,0-9.077-3.76,12.837,12.837,0,0,0,9.077,3.76Z" transform="translate(7.894 41.648)" fill="#da3832"/><path d="M660.776,388.861h-.008a7.784,7.784,0,1,1,7.79-7.786v.008a7.8,7.8,0,0,1-7.782,7.778Zm0-13.067a5.284,5.284,0,1,0-.006,10.568h.005a5.291,5.291,0,0,0,5.283-5.28v-.006A5.288,5.288,0,0,0,660.776,375.794Z" transform="translate(-638.797 -325.35)" fill="#da3832"/><path d="M14.087-1.25A15.337,15.337,0,1,1-1.25,14.087,15.337,15.337,0,0,1,14.087-1.25Zm0,28.174a12.837,12.837,0,1,0-9.077-3.76,12.837,12.837,0,0,0,9.077,3.76Z" transform="translate(97.584 43.076)" fill="#da3832"/><path d="M712.32,374.119h0a7.784,7.784,0,1,1-7.784,7.785,7.784,7.784,0,0,1,7.784-7.785Zm0,13.067a5.284,5.284,0,1,0,0-10.567v0a5.284,5.284,0,1,0,0,10.568Z" transform="translate(-600.653 -324.739)" fill="#da3832"/></g></g></svg>