<svg xmlns="http://www.w3.org/2000/svg" width="150" height="101.25" viewBox="0 0 150 101.25"><g transform="translate(-13846 -1924)"><rect width="150" height="101.25" transform="translate(13846 1924)" fill="#fff" opacity="0"/><g transform="translate(-218 -6.182)"><path d="M0-1.25H17.641A1.25,1.25,0,0,1,18.891,0V6.628a1.25,1.25,0,0,1-1.25,1.25H0a1.25,1.25,0,0,1-1.25-1.25V0A1.25,1.25,0,0,1,0-1.25Zm16.391,2.5H1.25V5.378H16.391Z" transform="translate(14113.16 2005.924)"/><path d="M0-1.25H8.3A1.25,1.25,0,0,1,9.546,0V6.628A1.25,1.25,0,0,1,8.3,7.878H0a1.25,1.25,0,0,1-1.25-1.25V0A1.25,1.25,0,0,1,0-1.25Zm7.046,2.5H1.25V5.378h5.8Z" transform="translate(14174.962 2005.924)"/><path d="M8.315,47.306H0V.14A3.144,3.144,0,0,1,3.14-3H23.992a3.124,3.124,0,0,1,2.659,1.469L31.814,23.4V44.166a3.144,3.144,0,0,1-3.14,3.14H21.439a8.639,8.639,0,0,0-13.123,0Z" transform="translate(14179.186 1958.618)" fill="rgba(0,0,0,0)"/><path d="M8.315,48.556H0a1.25,1.25,0,0,1-1.25-1.25V.14A4.4,4.4,0,0,1,3.14-4.25H23.992A4.367,4.367,0,0,1,27.709-2.2a1.25,1.25,0,0,1,.166.412L33.038,23.15a1.25,1.25,0,0,1,.026.253V44.166a4.4,4.4,0,0,1-4.39,4.39H21.439a1.25,1.25,0,0,1-.949-.436,7.389,7.389,0,0,0-11.225,0,1.251,1.251,0,0,1-.95.436Zm-7.066-2.5H7.763a9.889,9.889,0,0,1,14.227,0h6.684a1.892,1.892,0,0,0,1.89-1.89V23.532L25.478-1.028a1.879,1.879,0,0,0-1.486-.722H3.14A1.893,1.893,0,0,0,1.249.14Z" transform="translate(14179.186 1958.618)"/><path d="M3.781-1.25A5.031,5.031,0,1,1-1.25,3.781,5.031,5.031,0,0,1,3.781-1.25Zm0,7.562A2.531,2.531,0,1,0,1.25,3.781,2.531,2.531,0,0,0,3.781,6.312Z" transform="translate(14190.281 2007.762)" fill="#ed1c24"/><path d="M89.733,28.685H81.977a8.64,8.64,0,0,0-13.126,0h-28.1a8.64,8.64,0,0,0-13.126,0h-7.68a8.64,8.64,0,0,0-13.126,0H3.779A3.783,3.783,0,0,1,0,24.906V-10H107.483V24.906a3.783,3.783,0,0,1-3.779,3.779h-.844a8.64,8.64,0,0,0-13.126,0Z" transform="translate(14067.479 1977.24)" fill="rgba(0,0,0,0)"/><path d="M89.733,29.935H81.976a1.25,1.25,0,0,1-.949-.437,7.39,7.39,0,0,0-11.227,0,1.25,1.25,0,0,1-.949.437h-28.1A1.25,1.25,0,0,1,39.8,29.5a7.39,7.39,0,0,0-11.227,0,1.25,1.25,0,0,1-.949.437H19.945A1.25,1.25,0,0,1,19,29.5a7.39,7.39,0,0,0-11.227,0,1.25,1.25,0,0,1-.949.437H3.779A5.035,5.035,0,0,1-1.25,24.906V-10A1.25,1.25,0,0,1,0-11.25H107.483a1.25,1.25,0,0,1,1.25,1.25V24.906a5.035,5.035,0,0,1-5.029,5.029h-.844a1.25,1.25,0,0,1-.949-.437,7.39,7.39,0,0,0-11.227,0l-.008.01a1.251,1.251,0,0,1-.943.427Zm-7.2-2.5h6.653a9.89,9.89,0,0,1,14.23,0h.292a2.532,2.532,0,0,0,2.529-2.529V-8.75H1.25V24.906a2.532,2.532,0,0,0,2.529,2.529H6.267a9.89,9.89,0,0,1,14.229,0H27.07a9.89,9.89,0,0,1,14.229,0h27a9.89,9.89,0,0,1,14.229,0Z" transform="translate(14067.479 1977.24)"/><path d="M5.471-15.644V26.829H-1.25V-7Zm-2.5,39.973V-8.356L1.25-6.142V24.329Z" transform="translate(14174.962 1974.22)"/><path d="M96.948,24.685H70.491V.172a4.4,4.4,0,0,1,4.39-4.39H87.59a4.368,4.368,0,0,1,3.717,2.054l.12.191Zm-23.957-2.5H93.877L89.077-1a1.88,1.88,0,0,0-1.487-.722H74.881a1.893,1.893,0,0,0-1.89,1.89Z" transform="translate(14115.588 1958.585)"/><path d="M0,8.4a1.246,1.246,0,0,1-.884-.37,1.25,1.25,0,0,1,0-1.768L6.262-.884a1.25,1.25,0,0,1,1.768,0,1.25,1.25,0,0,1,0,1.768L.884,8.03A1.246,1.246,0,0,1,0,8.4Z" transform="translate(14190.677 1963.667)"/><path d="M0,5.537a1.246,1.246,0,0,1-.884-.366,1.25,1.25,0,0,1,0-1.768L3.4-.884a1.25,1.25,0,0,1,1.768,0,1.25,1.25,0,0,1,0,1.768L.884,5.171A1.246,1.246,0,0,1,0,5.537Z" transform="translate(14196.264 1969.063)"/><path d="M3.573,1.25H0A1.25,1.25,0,0,1-1.25,0,1.25,1.25,0,0,1,0-1.25H3.573A1.25,1.25,0,0,1,4.823,0a1.25,1.25,0,0,1-1.25,1.25Z" transform="translate(14192.04 1989.94)"/><path d="M0,24.416a1.25,1.25,0,0,1-1.25-1.25V0A1.25,1.25,0,0,1,0-1.25,1.25,1.25,0,0,1,1.25,0V23.166A1.25,1.25,0,0,1,0,24.416Z" transform="translate(14187.329 1982.5)"/><path d="M6.786,1.25H0A1.25,1.25,0,0,1-1.25,0,1.25,1.25,0,0,1,0-1.25H6.786A1.25,1.25,0,0,1,8.036,0a1.25,1.25,0,0,1-1.25,1.25Z" transform="translate(14179.973 1987.094)"/><path d="M1.25,33.965h-2.5V0h2.5Z" transform="translate(14079.191 1967.24)"/><path d="M1.25,38.479h-2.5V0h2.5Z" transform="translate(14089.166 1967.24)"/><path d="M1.25,33.965h-2.5V0h2.5Z" transform="translate(14099.141 1967.24)"/><path d="M1.25,38.692h-2.5V0h2.5Z" transform="translate(14108.007 1967.24)"/><path d="M1.25,38.692h-2.5V0h2.5Z" transform="translate(14117.981 1967.24)"/><path d="M1.25,38.692h-2.5V0h2.5Z" transform="translate(14127.956 1967.24)"/><path d="M1.25,36.974h-2.5V0h2.5Z" transform="translate(14136.822 1967.24)"/><path d="M1.25,35.47h-2.5V0h2.5Z" transform="translate(14146.797 1967.24)"/><path d="M1.25,38.692h-2.5V0h2.5Z" transform="translate(14156.771 1967.24)"/><path d="M1.25,35.007h-2.5V0h2.5Z" transform="translate(14165.638 1967.24)"/><g transform="translate(14155.138 2002.904)"><path d="M8.639-1.25A9.889,9.889,0,1,1-1.25,8.639,9.889,9.889,0,0,1,8.639-1.25Zm0,17.278A7.389,7.389,0,1,0,1.25,8.639a7.389,7.389,0,0,0,7.389,7.389Z" fill="#ed1c24"/><path d="M3.781-1.25A5.031,5.031,0,1,1-1.25,3.781,5.031,5.031,0,0,1,3.781-1.25Zm0,7.562A2.531,2.531,0,1,0,1.25,3.781,2.531,2.531,0,0,0,3.781,6.312Z" transform="translate(4.858 4.858)" fill="#ed1c24"/></g><g transform="translate(14093.027 2002.904)"><path d="M8.639-1.25A9.889,9.889,0,1,1-1.25,8.639,9.889,9.889,0,0,1,8.639-1.25Zm0,17.278A7.389,7.389,0,1,0,1.25,8.639a7.389,7.389,0,0,0,7.389,7.389Z" fill="#ed1c24"/><path d="M3.781-1.25A5.031,5.031,0,1,1-1.25,3.781,5.031,5.031,0,0,1,3.781-1.25Zm0,7.562A2.531,2.531,0,1,0,1.25,3.781,2.531,2.531,0,0,0,3.781,6.312Z" transform="translate(4.858 4.858)" fill="#ed1c24"/></g><g transform="translate(14134.255 2002.904)"><path d="M8.639-1.25A9.889,9.889,0,1,1-1.25,8.639,9.889,9.889,0,0,1,8.639-1.25Zm0,17.278A7.389,7.389,0,1,0,1.25,8.639a7.389,7.389,0,0,0,7.389,7.389Z" fill="#ed1c24"/><path d="M3.781-1.25A5.031,5.031,0,1,1-1.25,3.781,5.031,5.031,0,0,1,3.781-1.25Zm0,7.562A2.531,2.531,0,1,0,1.25,3.781,2.531,2.531,0,0,0,3.781,6.312Z" transform="translate(4.858 4.858)" fill="#ed1c24"/></g><g transform="translate(14072.224 2002.904)"><path d="M8.639-1.25A9.889,9.889,0,1,1-1.25,8.639,9.889,9.889,0,0,1,8.639-1.25Zm0,17.278A7.389,7.389,0,1,0,1.25,8.639a7.389,7.389,0,0,0,7.389,7.389Z" fill="#ed1c24"/><path d="M3.781-1.25A5.031,5.031,0,1,1-1.25,3.781,5.031,5.031,0,0,1,3.781-1.25Zm0,7.562A2.531,2.531,0,1,0,1.25,3.781,2.531,2.531,0,0,0,3.781,6.312Z" transform="translate(4.859 4.858)" fill="#ed1c24"/></g><path d="M0-1.147a1.249,1.249,0,0,1,.664.191L9.486,4.581A1.25,1.25,0,0,1,8.822,6.89H0A1.25,1.25,0,0,1-1.25,5.64V.1A1.25,1.25,0,0,1-.6-.991,1.249,1.249,0,0,1,0-1.147ZM4.478,4.389,1.25,2.363V4.389Z" transform="translate(14067.479 1961.112)"/><path d="M107.912,1.25H0v-2.5H107.912Z" transform="translate(14067 1999.8)"/><path d="M8.639-1.25A9.889,9.889,0,1,1-1.25,8.639,9.889,9.889,0,0,1,8.639-1.25Zm0,17.278A7.389,7.389,0,1,0,1.25,8.639a7.389,7.389,0,0,0,7.389,7.389Z" transform="translate(14185.424 2002.904)" fill="#ed1c24"/></g></g></svg>